<svg id="Layer_1" data-name="Layer 1" xmlns="http://www.w3.org/2000/svg" viewBox="0 0 566.93 443.68"><defs><style>.cls-1{fill:#130c0e;}</style></defs><path class="cls-1" d="M477.27,299.9c-27.9,0-47.45-23.84-47.45-52.46a57.28,57.28,0,0,1,4.11-21.39c.52-1.06,1-2.14,1.44-3.23,7.61-15.75,22.54-26.88,41.67-26.88,18.36,0,35.05,11.44,42.68,30.76h47.21c-3.1-18.13-13.12-34.34-29.81-48.65-17.64-15-37.19-21.69-61.52-21.69a90,90,0,0,0-48.76,14.37,46.93,46.93,0,0,0-16.66-9.58c13.35-7.4,20.5-20.75,20.5-35.77C430.68,101.54,414,86,394,81.51c-6.2-1.43-15.5-2.15-28.13-2.15H288.22v0H240v36h42.21c-5.48,18.12-21.22,28.37-42.2,28.37-29.81,0-48.41-23.6-48.41-52.93,0-28.38,19.79-51.27,48.17-51.27,16.93,0,30.52,8.35,38.87,22.89h50.55C319.21,26.94,280.82,0,241,0c-51.26,0-94.42,37.44-94.42,90.85,0,51.74,41.49,92.51,93.71,92.51,18.45,0,34.53-4.49,47.93-12.11v84.56H368c6.72,0,12.33-.13,17.2-.45C387,277.69,395.31,296.8,411.94,313c18.12,17.89,41.25,26.47,65.81,26.47,41.73,0,78.21-26.94,89.18-69.39H519.72C510.42,289.88,495.16,299.9,477.27,299.9Zm-108.07-181c11.2,0,16.93,4.06,16.93,13.35s-6,14.07-17.17,14.07H331.38V118.94Zm-37.82,97.29V184h42.36c13.36,0,20.27,5,20.27,15.26,0,11.44-7.87,16.93-20.5,16.93Z"/><path class="cls-1" d="M25.07,247v-8.47H65.12c-.6,21-16.51,32.68-33.37,32.68-17.12,0-31.75-14.89-31.75-32,0-20.54,15.75-33.72,31.75-33.72,12.15,0,22.59,5.74,29,17.12H50c-5.4-6.16-10.79-8.64-17.8-8.64C19.85,214,9.24,225.6,9.24,238.1c0,13.35,10.53,24.64,23.28,24.64,10,0,18-5.56,22.08-15.74Z"/><path class="cls-1" d="M96.36,271.21c-13.35,0-25.25-11.38-25.25-24.73,0-14.46,11.38-25.16,25.93-25.16,13.09,0,25.42,10.27,25.25,25.33C122.12,259.32,111.5,271.21,96.36,271.21Zm.25-41.76A16.88,16.88,0,0,0,80,246.23c0,9,7.45,16.86,16.43,16.86a16.82,16.82,0,1,0,.17-33.64Z"/><path class="cls-1" d="M154.12,271.21c-13.35,0-25.24-11.38-25.24-24.73,0-14.46,11.38-25.16,25.92-25.16,13.1,0,25.42,10.27,25.25,25.33C179.88,259.32,169.27,271.21,154.12,271.21Zm.26-41.76a16.88,16.88,0,0,0-16.6,16.78c0,9,7.44,16.86,16.43,16.86a16.82,16.82,0,1,0,.17-33.64Z"/><path class="cls-1" d="M228.23,270v-6.76h-.17c-3.68,5.13-9.84,7.95-16.78,7.95-13.77,0-24.64-10.44-24.64-24.38,0-14.47,10.27-25.51,24.39-25.51,6.42,0,12.49,2.32,16.34,7.11h.17V206.69h8.9V270Zm-16.52-40.57c-9.07,0-16.17,7.62-16.17,17,0,8.9,7.27,16.69,16.17,16.69a16.55,16.55,0,0,0,16.52-16.35C228.23,237.07,221.72,229.45,211.71,229.45Z"/><path class="cls-1" d="M7.87,356.25V292.93h17.2c11.64,0,19,7.27,19,17.2,0,5.39-1.54,8.81-5.65,12.32,6.08,3.42,9.42,8.3,9.42,15.4,0,11.3-8.48,18.4-20,18.4Zm16.86-37c6.25,0,10.1-3,10.1-8.9,0-6.07-3.85-9-10.61-9H17.11v17.88ZM27,347.78c6.59,0,11.55-3.77,11.55-9.93,0-4.28-2.91-10.09-11.29-10.09H17.11v20Z"/><path class="cls-1" d="M90.62,356.25v-5.13h-.17c-2.31,4-7.7,6.33-14,6.33-10.18,0-19.76-5.48-19.76-22.16V308.84h8.9V334.6c0,9.93,3.68,14.72,11.8,14.72s12.41-5.73,12.41-14.89V308.84h8.9v47.41Z"/><path class="cls-1" d="M128.87,321.42c-.42-3.42-2.39-5.73-6.07-5.73-3.42,0-5.56,2.31-5.56,5.05,0,4,4.1,5.22,8.81,6.67,6.68,2.06,12.84,6.08,12.84,14.89,0,9.16-6.68,15.15-15.92,15.15-8.56,0-16.77-5.82-16.77-16.77h8.9c.43,5.73,3.33,8.64,8,8.64,4.11,0,6.85-2.65,6.85-6.5,0-3.26-2.48-5.4-8.05-7.19-11.63-3.68-13.6-8.73-13.6-14.12,0-8.39,7.1-13.95,14.89-13.95s14.29,5.48,14.55,13.86Z"/><path class="cls-1" d="M148.21,303.37V292.93h8.9v10.44Zm0,52.88V308.84h8.9v47.41Z"/><path class="cls-1" d="M201.7,356.25V330.41c0-10-3.94-14.72-11.81-14.72s-12.49,5.73-12.49,14.63v25.93h-8.9V308.84h8.3v5.05H177c3.51-4.53,8.38-6.33,13.86-6.33,11.38,0,19.77,7.19,19.77,20.28v28.41Z"/><path class="cls-1" d="M228.48,336.4c2.06,7.87,8.3,12.92,15.58,12.92a15.27,15.27,0,0,0,13.52-8h8.9a24.29,24.29,0,0,1-22.76,16.09c-13.35,0-24.14-11.81-24.14-24.47,0-15,11.3-25.42,23.88-25.42A24.15,24.15,0,0,1,268,332a26.61,26.61,0,0,1-.26,4.45Zm30.64-6.85a15.48,15.48,0,0,0-15.4-13.86c-7.28,0-14.55,5.73-15.24,13.86Z"/><path class="cls-1" d="M297.29,321.42c-.43-3.42-2.4-5.73-6.08-5.73-3.42,0-5.56,2.31-5.56,5.05,0,4,4.11,5.22,8.81,6.67,6.68,2.06,12.84,6.08,12.84,14.89,0,9.16-6.68,15.15-15.92,15.15-8.56,0-16.77-5.82-16.77-16.77h8.9c.43,5.73,3.34,8.64,8,8.64,4.11,0,6.85-2.65,6.85-6.5,0-3.26-2.48-5.4-8-7.19-11.63-3.68-13.6-8.73-13.6-14.12,0-8.39,7.1-13.95,14.89-13.95s14.29,5.48,14.55,13.86Z"/><path class="cls-1" d="M337,321.42c-.42-3.42-2.39-5.73-6.07-5.73-3.43,0-5.56,2.31-5.56,5.05,0,4,4.1,5.22,8.81,6.67,6.67,2.06,12.84,6.08,12.84,14.89,0,9.16-6.68,15.15-15.92,15.15-8.56,0-16.77-5.82-16.77-16.77h8.9c.42,5.73,3.33,8.64,8,8.64,4.11,0,6.85-2.65,6.85-6.5,0-3.26-2.49-5.4-8.05-7.19-11.64-3.68-13.6-8.73-13.6-14.12,0-8.39,7.1-13.95,14.89-13.95s14.29,5.48,14.54,13.86Z"/><path class="cls-1" d="M61.27,426.83c-6.42,11-16.6,16.85-29.26,16.85-17.55,0-32-15.74-32-32.6C0,392,15.06,378,32.09,378c12,0,23.19,5.48,29.61,17.37H50.57c-4.79-5.56-10.35-8.9-17.79-8.9-13.27,0-23.54,11.22-23.54,23.79,0,13.27,10,25,23,25,6.59,0,12.5-2.56,17.63-8.38Z"/><path class="cls-1" d="M102.52,442.49V416.73c0-10.18-3.94-14.81-11.81-14.81s-12.49,5.65-12.49,14.89v25.68h-8.9V379.16h8.9v21h.17c2.82-4.2,7.36-6.34,13.26-6.34,11.3,0,19.77,7.19,19.77,20.2v28.5Z"/><path class="cls-1" d="M161.57,442.49v-7.36h-.17c-3.34,5.65-9.33,8.55-16.09,8.55-13.87,0-25.16-10.44-25.16-24.13,0-15.14,10.87-25.76,24.81-25.76,6.94,0,12.76,2.57,16.44,8h.17v-6.67h8.9v47.41Zm.17-23.62c0-9.24-6.68-16.95-16.52-16.95-8.9,0-16.17,7.62-16.17,16.95,0,8.9,7.27,16.68,16.17,16.68A16.67,16.67,0,0,0,161.74,418.87Z"/><path class="cls-1" d="M181.93,442.49V395.08h8.3v4.28h.17c2.14-3.17,5.82-5.22,12.07-5.57V403c-7.7.26-11.64,5-11.64,12.92v26.62Z"/><path class="cls-1" d="M217.36,442.49V403.21h-6.42v-8.13h6.42V379.16h8.9v15.92h7.79v8.13h-7.79v39.28Z"/><path class="cls-1" d="M248.25,422.63c2.06,7.88,8.3,12.92,15.58,12.92a15.26,15.26,0,0,0,13.52-7.95h8.9a24.29,24.29,0,0,1-22.76,16.08c-13.35,0-24.14-11.8-24.14-24.47,0-15,11.3-25.42,23.88-25.42a24.15,24.15,0,0,1,24.56,24.39,26.49,26.49,0,0,1-.26,4.45Zm30.64-6.84a15.48,15.48,0,0,0-15.4-13.87c-7.28,0-14.55,5.74-15.24,13.87Z"/><path class="cls-1" d="M296.69,442.49V395.08H305v4.28h.17c2.14-3.17,5.82-5.22,12.07-5.57V403c-7.71.26-11.64,5-11.64,12.92v26.62Z"/></svg>