<?xml version="1.0" encoding="UTF-8" standalone="no"?>
<!DOCTYPE svg PUBLIC "-//W3C//DTD SVG 1.1//EN" "http://www.w3.org/Graphics/SVG/1.1/DTD/svg11.dtd">
<svg width="100%" height="100%" viewBox="0 0 1772 2717" version="1.1" xmlns="http://www.w3.org/2000/svg" xmlns:xlink="http://www.w3.org/1999/xlink" xml:space="preserve" xmlns:serif="http://www.serif.com/" style="fill-rule:evenodd;clip-rule:evenodd;stroke-linejoin:round;stroke-miterlimit:2;">
    <g id="Layer-1" serif:id="Layer 1" transform="matrix(4.16667,0,0,4.16667,0,0)">
        <g transform="matrix(0.924428,0.381356,0.381356,-0.924428,95.9264,306.254)">
            <path d="M8.332,4.974C18.67,10.524 30.11,16.315 42.482,22.246C30.112,28.24 18.674,34.098 8.332,39.708C-30.575,35.716 -55.433,29.53 -55.432,22.519C-55.429,15.511 -30.574,9.185 8.332,4.974" style="fill:rgb(32,45,102);fill-rule:nonzero;"/>
        </g>
        <g transform="matrix(0.924439,-0.38133,-0.38133,-0.924439,200.317,250.014)">
            <path d="M-19.365,-4.279C-13.421,8.129 -7.608,19.626 -2.041,30.011C-6.142,69.014 -12.373,93.923 -19.365,93.904C-26.359,93.884 -32.595,68.934 -36.684,29.903C-31.104,19.523 -25.291,8.051 -19.365,-4.279" style="fill:rgb(32,45,102);fill-rule:nonzero;"/>
        </g>
        <g transform="matrix(0.924439,0.38133,0.38133,-0.924439,224.883,250.013)">
            <path d="M19.365,-4.28C25.295,8.051 31.107,19.524 36.687,29.904C32.599,68.935 26.361,93.885 19.365,93.903C12.379,93.925 6.14,69.013 2.042,30.01C7.618,19.63 13.423,8.129 19.365,-4.28" style="fill:rgb(32,45,102);fill-rule:nonzero;"/>
        </g>
        <g transform="matrix(0.383974,0.923344,0.923344,-0.383974,291.209,246.251)">
            <path d="M47.658,-30.302C53.616,-17.963 59.441,-6.537 65.022,3.79C60.922,42.71 54.668,67.586 47.658,67.603C40.65,67.63 34.391,42.785 30.291,3.895C35.868,-6.468 41.695,-17.923 47.658,-30.302" style="fill:rgb(32,45,102);fill-rule:nonzero;"/>
        </g>
        <g transform="matrix(-0.924442,-0.381322,-0.381322,0.924442,126.818,481.862)">
            <path d="M-21.594,-97.732C-15.668,-85.401 -9.856,-73.926 -4.274,-63.551C-8.363,-24.518 -14.601,0.436 -21.594,0.453C-28.587,0.475 -34.818,-24.435 -38.919,-63.438C-33.351,-73.827 -27.539,-85.319 -21.594,-97.732" style="fill:rgb(32,45,102);fill-rule:nonzero;"/>
        </g>
        <g transform="matrix(-0.924507,-0.381164,-0.381164,0.924507,326.866,404.714)">
            <path d="M25.111,-42.045C35.456,-36.493 46.901,-30.707 59.256,-24.784C46.896,-18.782 35.457,-12.92 25.111,-7.311C-13.789,-11.295 -38.648,-17.475 -38.65,-24.483C-38.655,-31.492 -13.795,-37.827 25.111,-42.045" style="fill:rgb(32,45,102);fill-rule:nonzero;"/>
        </g>
        <g transform="matrix(-0.924442,0.381322,0.381322,0.924442,298.385,481.862)">
            <path d="M21.597,-97.732C27.54,-85.319 33.343,-73.823 38.921,-63.438C34.822,-24.436 28.584,0.477 21.597,0.452C14.602,0.436 8.362,-24.517 4.274,-63.55C9.856,-73.925 15.667,-85.4 21.597,-97.732" style="fill:rgb(32,45,102);fill-rule:nonzero;"/>
        </g>
        <g transform="matrix(-0.383964,-0.923348,-0.923348,0.383964,60.2825,344.705)">
            <path d="M-45.421,-71.435C-39.452,-59.081 -33.633,-47.656 -28.053,-37.333C-32.152,1.584 -38.413,26.459 -45.421,26.481C-52.428,26.5 -58.685,1.66 -62.788,-37.234C-57.209,-47.593 -51.381,-59.047 -45.421,-71.435" style="fill:rgb(32,45,102);fill-rule:nonzero;"/>
        </g>
        <g transform="matrix(1,0,0,1,257.268,358.176)">
            <path d="M0,-55.243L-13.461,-40.601L-44.685,-9.375L-75.881,-40.601L-89.336,-55.243C-110.07,-77.817 -94.662,-93.292 -72.178,-72.466L-57.593,-58.963L-44.685,-47.264L-17.157,-72.466C5.326,-93.292 26.191,-110.944 43.156,-123.514C53.603,-131.251 60.783,-135.729 65.591,-138.321C63.013,-133.496 58.551,-126.284 50.845,-115.796C38.323,-98.756 20.745,-77.817 0,-55.243M127.788,-27.622C127.788,-37.663 76.877,-46.16 6.738,-49.001C54.336,-100.799 84.353,-142.952 77.28,-150.053C70.207,-157.153 28.225,-127.017 -23.377,-79.234C-26.202,-149.649 -34.669,-200.762 -44.66,-200.762C-54.673,-200.762 -63.133,-149.649 -65.958,-79.234C-117.554,-127.017 -159.542,-157.153 -166.611,-150.053C-173.684,-142.952 -143.663,-100.799 -96.072,-49.001C-166.211,-46.16 -217.127,-37.663 -217.127,-27.622C-217.127,-17.581 -166.211,-9.087 -96.072,-6.246C-143.663,45.556 -173.684,87.706 -166.611,94.808C-159.542,101.907 -117.554,71.773 -65.958,23.986C-63.133,94.402 -54.673,145.519 -44.66,145.519C-34.669,145.519 -26.202,94.402 -23.377,23.986C28.225,71.773 70.207,101.907 77.28,94.808C84.353,87.706 54.336,45.556 6.738,-6.246C76.877,-9.087 127.788,-17.581 127.788,-27.622" style="fill:rgb(228,190,33);fill-rule:nonzero;"/>
        </g>
        <g transform="matrix(1,0,0,1,110.125,584.714)">
            <path d="M0,-3.18C-0.656,-3.983 -1.482,-4.641 -2.482,-5.157C-3.482,-5.674 -4.723,-5.93 -6.206,-5.93C-7.632,-5.93 -8.858,-5.688 -9.889,-5.201C-10.916,-4.713 -11.771,-4.069 -12.455,-3.266C-13.141,-2.463 -13.668,-1.532 -14.037,-0.473C-14.412,0.588 -14.682,1.662 -14.853,2.75L2.014,2.75C1.957,1.662 1.77,0.601 1.456,-0.43C1.144,-1.461 0.657,-2.377 0,-3.18" style="fill:rgb(32,45,102);fill-rule:nonzero;"/>
        </g>
        <g transform="matrix(1,0,0,1,303.982,610.585)">
            <path d="M0,-17.791C-1.372,-17.791 -2.798,-17.691 -4.28,-17.49C-5.765,-17.289 -7.133,-16.859 -8.391,-16.201C-9.647,-15.543 -10.674,-14.639 -11.474,-13.494C-12.273,-12.348 -12.672,-10.83 -12.672,-8.939C-12.672,-7.275 -12.398,-5.873 -11.855,-4.727C-11.317,-3.58 -10.543,-2.664 -9.546,-1.977C-8.548,-1.289 -7.351,-0.787 -5.951,-0.473C-4.551,-0.156 -2.966,0 -1.196,0C0.969,0 2.868,-0.072 4.495,-0.215C6.122,-0.357 7.504,-0.545 8.647,-0.775L8.647,-16.416C8.017,-16.703 7.021,-17.004 5.652,-17.318C4.282,-17.635 2.395,-17.791 0,-17.791" style="fill:rgb(32,45,102);fill-rule:nonzero;"/>
        </g>
        <g transform="matrix(1,0,0,1,185.93,604.825)">
            <path d="M0,-25.527C-1.312,-25.527 -2.609,-25.355 -3.893,-25.009C-5.18,-24.666 -6.22,-24.236 -7.019,-23.72L-7.019,-0.427C-6.394,-0.312 -5.592,-0.215 -4.623,-0.127C-3.653,-0.043 -2.597,0 -1.453,0C2.026,0 4.652,-1.201 6.422,-3.609C8.188,-6.013 9.076,-9.195 9.076,-13.15C9.076,-21.4 6.05,-25.527 0,-25.527" style="fill:rgb(32,45,102);fill-rule:nonzero;"/>
        </g>
        <g transform="matrix(1,0,0,1,418.82,128.864)">
            <path d="M0,394.238L-412.45,394.238L-412.45,-98.42C-412.45,-111.676 -401.699,-122.456 -388.499,-122.456L-23.941,-122.456C-10.744,-122.456 0,-111.676 0,-98.42L0,394.238ZM-31.892,485.759C-33.232,483.502 -34.788,481.287 -36.555,479.115C-38.324,476.943 -40.18,474.896 -42.124,472.978C-44.064,471.062 -46.01,469.312 -47.949,467.732C-49.892,466.152 -51.616,464.965 -53.112,464.172L-53.112,485.759L-58.679,485.759L-58.679,420.093L-53.112,419.062L-53.112,460.465C-51.923,459.439 -50.439,458.043 -48.662,456.273C-46.886,454.508 -45.077,452.728 -43.233,450.939C-41.392,449.15 -39.65,447.418 -38.011,445.742C-36.374,444.064 -34.997,442.592 -33.888,441.324L-27.088,441.324C-28.398,442.701 -29.901,444.228 -31.598,445.906C-33.295,447.584 -35.062,449.332 -36.901,451.154C-38.741,452.972 -40.554,454.763 -42.333,456.527C-44.116,458.291 -45.854,459.968 -47.551,461.564C-45.533,462.99 -43.492,464.638 -41.439,466.508C-39.387,468.375 -37.36,470.398 -35.361,472.578C-33.367,474.759 -31.484,476.994 -29.719,479.289C-27.952,481.582 -26.448,483.738 -25.206,485.759L-31.892,485.759ZM-66.042,446.568C-66.497,446.34 -67.426,446.093 -68.823,445.836C-70.22,445.578 -72.063,445.449 -74.345,445.449C-76.739,445.449 -78.667,445.623 -80.123,445.965C-81.58,446.31 -82.536,446.595 -82.989,446.824L-82.989,485.759L-88.555,485.759L-88.555,443.386C-87.13,442.758 -85.159,442.111 -82.649,441.453C-80.137,440.795 -77.084,440.463 -73.486,440.463C-71.663,440.463 -69.934,440.607 -68.308,440.894C-66.681,441.181 -65.556,441.467 -64.928,441.754L-66.042,446.568ZM-100.628,484.73C-101.197,484.9 -102.028,485.088 -103.109,485.285C-104.194,485.488 -105.449,485.703 -106.876,485.931C-108.304,486.16 -109.886,486.347 -111.626,486.492C-113.37,486.633 -115.153,486.707 -116.979,486.707C-119.319,486.707 -121.474,486.447 -123.441,485.931C-125.411,485.416 -127.125,484.599 -128.577,483.484C-130.034,482.365 -131.177,480.933 -132.004,479.185C-132.831,477.437 -133.244,475.302 -133.244,472.781C-133.244,470.375 -132.787,468.312 -131.874,466.593C-130.961,464.875 -129.679,463.457 -128.021,462.338C-126.367,461.222 -124.398,460.406 -122.114,459.888C-119.832,459.373 -117.35,459.115 -114.667,459.115C-113.869,459.115 -113.025,459.158 -112.142,459.244C-111.257,459.33 -110.399,459.445 -109.572,459.59C-108.746,459.73 -108.033,459.877 -107.434,460.017C-106.833,460.162 -106.42,460.289 -106.19,460.406L-106.19,457.654C-106.19,456.107 -106.307,454.603 -106.534,453.142C-106.764,451.679 -107.264,450.363 -108.033,449.189C-108.802,448.015 -109.886,447.068 -111.287,446.351C-112.686,445.636 -114.526,445.277 -116.806,445.277C-120.061,445.277 -122.489,445.508 -124.084,445.965C-125.683,446.426 -126.854,446.797 -127.595,447.082L-128.365,442.183C-127.395,441.724 -125.898,441.295 -123.872,440.894C-121.846,440.494 -119.405,440.293 -116.549,440.293C-113.639,440.293 -111.174,440.711 -109.146,441.539C-107.12,442.369 -105.481,443.515 -104.225,444.976C-102.967,446.439 -102.053,448.172 -101.483,450.176C-100.913,452.183 -100.628,454.361 -100.628,456.709L-100.628,484.73ZM-142.061,485.759L-147.626,485.759L-147.626,462.726C-147.626,459.804 -147.753,457.265 -148.01,455.117C-148.266,452.97 -148.782,451.195 -149.551,449.791C-150.321,448.384 -151.421,447.326 -152.849,446.609C-154.275,445.894 -156.128,445.535 -158.41,445.535C-160.124,445.535 -161.681,445.693 -163.078,446.008C-164.478,446.326 -165.686,446.711 -166.717,447.168C-167.744,447.629 -168.587,448.086 -169.24,448.543C-169.896,449.004 -170.371,449.345 -170.652,449.576C-170.139,451.066 -169.752,452.74 -169.498,454.603C-169.24,456.467 -169.114,458.427 -169.114,460.49L-169.114,485.759L-174.676,485.759L-174.676,462.726C-174.676,459.804 -174.807,457.265 -175.062,455.117C-175.319,452.97 -175.849,451.195 -176.646,449.791C-177.446,448.384 -178.571,447.326 -180.029,446.609C-181.481,445.894 -183.408,445.535 -185.808,445.535C-188.491,445.535 -190.759,445.679 -192.613,445.965C-194.467,446.252 -195.65,446.511 -196.164,446.74L-196.164,485.759L-201.73,485.759L-201.73,442.871C-200.075,442.412 -197.92,441.898 -195.268,441.324C-192.613,440.752 -189.175,440.463 -184.951,440.463C-179.358,440.463 -175.307,442.097 -172.793,445.365C-172.51,445.134 -171.953,444.748 -171.124,444.203C-170.297,443.66 -169.257,443.101 -168,442.527C-166.743,441.955 -165.274,441.467 -163.59,441.066C-161.906,440.666 -160.036,440.463 -157.983,440.463C-154.618,440.463 -151.893,440.967 -149.809,441.968C-147.726,442.972 -146.112,444.375 -144.973,446.179C-143.83,447.984 -143.06,450.148 -142.659,452.67C-142.26,455.191 -142.061,457.941 -142.061,460.922L-142.061,485.759ZM-212.385,472.953C-213.441,475.875 -214.968,478.369 -216.964,480.431C-218.965,482.494 -221.417,484.084 -224.327,485.201C-227.236,486.318 -230.55,486.877 -234.259,486.877C-235.8,486.877 -237.413,486.804 -239.096,486.662C-240.779,486.519 -242.435,486.332 -244.062,486.101C-245.688,485.873 -247.241,485.603 -248.725,485.285C-250.212,484.972 -251.524,484.642 -252.664,484.299L-252.664,421.125L-239.908,419.062L-239.908,441.58C-238.481,440.953 -236.999,440.463 -235.456,440.121C-233.917,439.777 -232.261,439.605 -230.49,439.605C-227.297,439.605 -224.472,440.164 -222.018,441.281C-219.564,442.398 -217.508,443.988 -215.852,446.052C-214.198,448.113 -212.942,450.592 -212.085,453.486C-211.229,456.379 -210.802,459.601 -210.802,463.156C-210.802,466.765 -211.328,470.031 -212.385,472.953M-259.513,451.896C-260.653,451.609 -261.996,451.308 -263.536,450.992C-265.076,450.679 -266.733,450.521 -268.503,450.521C-269.302,450.521 -270.256,450.592 -271.368,450.734C-272.482,450.879 -273.325,451.037 -273.896,451.209L-273.896,485.759L-286.651,485.759L-286.651,442.957C-284.367,442.156 -281.671,441.396 -278.562,440.679C-275.452,439.963 -271.982,439.605 -268.159,439.605C-267.472,439.605 -266.646,439.648 -265.676,439.734C-264.707,439.82 -263.736,439.935 -262.767,440.078C-261.796,440.22 -260.826,440.394 -259.854,440.593C-258.884,440.795 -258.057,441.037 -257.373,441.324L-259.513,451.896ZM-294.44,465.004C-294.497,465.89 -294.557,466.679 -294.613,467.367L-323.548,467.367C-323.264,470.004 -322.036,472.093 -319.867,473.64C-317.697,475.187 -314.788,475.961 -311.135,475.961C-308.795,475.961 -306.499,475.746 -304.242,475.316C-301.989,474.888 -300.148,474.359 -298.719,473.726L-297.01,484.127C-297.693,484.47 -298.605,484.814 -299.749,485.158C-300.889,485.502 -302.159,485.804 -303.559,486.06C-304.955,486.318 -306.455,486.533 -308.052,486.707C-309.651,486.877 -311.248,486.963 -312.848,486.963C-316.9,486.963 -320.424,486.361 -323.42,485.158C-326.416,483.955 -328.9,482.308 -330.866,480.217C-332.835,478.125 -334.292,475.648 -335.231,472.781C-336.176,469.918 -336.645,466.824 -336.645,463.5C-336.645,459.488 -336.032,455.978 -334.806,452.97C-333.579,449.963 -331.967,447.457 -329.97,445.449C-327.969,443.445 -325.673,441.926 -323.077,440.894C-320.48,439.863 -317.812,439.347 -315.07,439.347C-308.683,439.347 -303.629,441.31 -299.919,445.236C-296.21,449.16 -294.354,454.933 -294.354,462.554C-294.354,463.299 -294.383,464.115 -294.44,465.004M-343.924,485.759L-356.68,485.759L-356.68,461.779C-356.68,457.654 -357.206,454.732 -358.264,453.013C-359.319,451.295 -361.276,450.433 -364.129,450.433C-365.269,450.433 -366.339,450.535 -367.338,450.734C-368.338,450.937 -369.234,451.152 -370.034,451.381L-370.034,485.759L-382.79,485.759L-382.79,421.125L-370.034,419.062L-370.034,440.724C-369.179,440.437 -368.082,440.164 -366.739,439.906C-365.398,439.648 -364.099,439.517 -362.843,439.517C-359.192,439.517 -356.153,440.021 -353.727,441.023C-351.301,442.027 -349.36,443.445 -347.903,445.277C-346.45,447.113 -345.422,449.289 -344.821,451.808C-344.224,454.332 -343.924,457.138 -343.924,460.232L-343.924,485.759ZM-23.941,-128.865L-388.499,-128.865C-405.224,-128.865 -418.819,-115.21 -418.819,-98.42L-418.819,492.662C-418.819,502.103 -414.523,510.556 -407.781,516.144C-402.534,520.492 -395.815,523.103 -388.499,523.103L-23.941,523.103C-7.224,523.103 6.377,509.449 6.377,492.662L6.377,-98.42C6.377,-115.21 -7.224,-128.865 -23.941,-128.865" style="fill:rgb(32,45,102);fill-rule:nonzero;"/>
        </g>
        <g transform="matrix(1,0,0,1,120.8,53.2304)">
            <path d="M0,6.336L0,19.224C0.815,19.321 1.703,19.393 2.664,19.44C3.623,19.488 4.68,19.512 5.832,19.512C9.191,19.512 11.903,19.033 13.968,18.072C16.031,17.112 17.063,15.336 17.063,12.744C17.063,10.44 16.2,8.796 14.472,7.812C12.744,6.829 10.271,6.336 7.056,6.336L0,6.336ZM0,-2.232L5.472,-2.232C8.928,-2.232 11.399,-2.675 12.888,-3.564C14.375,-4.452 15.12,-5.879 15.12,-7.848C15.12,-9.864 14.352,-11.279 12.815,-12.096C11.279,-12.912 9.023,-13.32 6.048,-13.32C5.087,-13.32 4.056,-13.308 2.952,-13.284C1.847,-13.259 0.864,-13.2 0,-13.104L0,-2.232ZM5.687,28.728C2.952,28.728 0.228,28.644 -2.484,28.476C-5.196,28.307 -8.017,27.913 -10.944,27.288L-10.944,-21.096C-8.64,-21.528 -6.12,-21.852 -3.384,-22.068C-0.648,-22.284 1.896,-22.392 4.248,-22.392C7.416,-22.392 10.332,-22.164 12.996,-21.708C15.66,-21.251 17.951,-20.472 19.872,-19.368C21.791,-18.263 23.292,-16.812 24.372,-15.012C25.452,-13.212 25.992,-10.991 25.992,-8.352C25.992,-4.367 24.071,-1.224 20.231,1.08C23.399,2.28 25.56,3.913 26.712,5.976C27.864,8.041 28.439,10.368 28.439,12.96C28.439,18.192 26.532,22.129 22.716,24.768C18.899,27.409 13.224,28.728 5.687,28.728" style="fill:rgb(32,45,102);fill-rule:nonzero;"/>
        </g>
        <g transform="matrix(1,0,0,1,186.391,81.3106)">
            <path d="M0,-49.896L11.231,-49.896L11.231,0L0,0L0,-21.168L-18.864,-21.168L-18.864,0L-30.097,0L-30.097,-49.896L-18.864,-49.896L-18.864,-30.816L0,-30.816L0,-49.896Z" style="fill:rgb(32,45,102);fill-rule:nonzero;"/>
        </g>
        <g transform="matrix(1,0,0,1,220.447,81.3106)">
            <path d="M0,-49.896C0.866,-48.312 1.864,-46.355 2.996,-44.028C4.127,-41.699 5.306,-39.179 6.533,-36.468C7.761,-33.756 8.976,-30.983 10.179,-28.152C11.382,-25.319 12.513,-22.655 13.572,-20.16C14.631,-22.655 15.762,-25.319 16.965,-28.152C18.168,-30.983 19.383,-33.756 20.61,-36.468C21.838,-39.179 23.017,-41.699 24.148,-44.028C25.279,-46.355 26.278,-48.312 27.145,-49.896L37.368,-49.896C37.848,-46.584 38.292,-42.876 38.7,-38.772C39.107,-34.668 39.468,-30.395 39.78,-25.956C40.092,-21.516 40.38,-17.064 40.645,-12.6C40.907,-8.136 41.136,-3.935 41.328,0L30.384,0C30.24,-4.848 30.048,-10.127 29.809,-15.84C29.567,-21.552 29.207,-27.312 28.729,-33.12C27.86,-31.104 26.897,-28.872 25.839,-26.424C24.779,-23.976 23.732,-21.528 22.697,-19.08C21.662,-16.632 20.663,-14.292 19.7,-12.06C18.737,-9.828 17.918,-7.92 17.244,-6.336L9.396,-6.336C8.721,-7.92 7.903,-9.828 6.94,-12.06C5.978,-14.292 4.978,-16.632 3.942,-19.08C2.907,-21.528 1.859,-23.976 0.801,-26.424C-0.259,-28.872 -1.222,-31.104 -2.088,-33.12C-2.568,-27.312 -2.928,-21.552 -3.168,-15.84C-3.408,-10.127 -3.6,-4.848 -3.744,0L-14.688,0C-14.496,-3.935 -14.269,-8.136 -14.004,-12.6C-13.74,-17.064 -13.452,-21.516 -13.14,-25.956C-12.828,-30.395 -12.468,-34.668 -12.06,-38.772C-11.652,-42.876 -11.208,-46.584 -10.728,-49.896L0,-49.896Z" style="fill:rgb(32,45,102);fill-rule:nonzero;"/>
        </g>
        <g transform="matrix(1,0,0,1,289.818,70.0068)">
            <path d="M0,-27.288C-0.251,-26.564 -0.618,-25.577 -1.101,-24.33C-1.583,-23.083 -2.132,-21.642 -2.749,-20.007C-3.365,-18.372 -4.055,-16.573 -4.816,-14.607C-5.578,-12.642 -6.352,-10.581 -7.139,-8.424L7.13,-8.424C6.366,-10.588 5.627,-12.655 4.911,-14.626C4.196,-16.598 3.516,-18.401 2.872,-20.037C2.228,-21.671 1.662,-23.111 1.177,-24.357C0.69,-25.603 0.298,-26.58 0,-27.288M13.494,11.304C12.938,9.57 12.342,7.789 11.703,5.962C11.064,4.135 10.428,2.315 9.794,0.504L-9.693,0.504C-10.323,2.324 -10.955,4.148 -11.588,5.977C-12.221,7.806 -12.811,9.583 -13.356,11.304L-25.021,11.304C-23.143,5.928 -21.361,0.961 -19.677,-3.6C-17.991,-8.16 -16.343,-12.456 -14.729,-16.488C-13.116,-20.52 -11.528,-24.348 -9.963,-27.972C-8.398,-31.596 -6.772,-35.136 -5.088,-38.592L5.56,-38.592C7.198,-35.136 8.814,-31.596 10.406,-27.972C11.997,-24.348 13.601,-20.52 15.217,-16.488C16.832,-12.456 18.483,-8.16 20.171,-3.6C21.858,0.961 23.643,5.928 25.523,11.304L13.494,11.304Z" style="fill:rgb(32,45,102);fill-rule:nonzero;"/>
        </g>
        <g>
            <g transform="matrix(45.0289,0,0,45.0289,19.5195,129.003)">
                <path d="M0.093,-0L0.093,-0.723L0.29,-0.723C0.377,-0.723 0.44,-0.708 0.478,-0.678C0.516,-0.649 0.535,-0.601 0.535,-0.533C0.535,-0.456 0.509,-0.396 0.457,-0.353C0.405,-0.309 0.333,-0.287 0.24,-0.287L0.195,-0.287L0.195,-0L0.093,-0ZM0.195,-0.365L0.236,-0.365C0.297,-0.365 0.344,-0.379 0.377,-0.407C0.411,-0.435 0.427,-0.474 0.427,-0.525C0.427,-0.569 0.414,-0.6 0.388,-0.618C0.362,-0.637 0.319,-0.646 0.258,-0.646L0.195,-0.646L0.195,-0.365Z" style="fill:rgb(32,45,102);fill-rule:nonzero;"/>
            </g>
            <g transform="matrix(45.0289,0,0,45.0289,41.8065,129.003)">
                <path d="M0.096,-0L0.096,-0.53L0.192,-0.53L0.192,-0.431C0.23,-0.505 0.286,-0.542 0.358,-0.542C0.368,-0.542 0.378,-0.541 0.389,-0.54L0.389,-0.45C0.373,-0.455 0.358,-0.458 0.345,-0.458C0.284,-0.458 0.233,-0.422 0.192,-0.35L0.192,-0L0.096,-0Z" style="fill:rgb(32,45,102);fill-rule:nonzero;"/>
            </g>
            <g transform="matrix(45.0289,0,0,45.0289,57.6294,129.003)">
                <path d="M0.37,-0.067C0.312,-0.014 0.257,0.012 0.203,0.012C0.159,0.012 0.123,-0.002 0.094,-0.029C0.065,-0.057 0.05,-0.091 0.05,-0.133C0.05,-0.191 0.075,-0.236 0.123,-0.267C0.172,-0.298 0.242,-0.313 0.333,-0.313L0.355,-0.313L0.355,-0.377C0.355,-0.439 0.324,-0.47 0.261,-0.47C0.21,-0.47 0.155,-0.454 0.096,-0.423L0.096,-0.502C0.161,-0.529 0.222,-0.542 0.278,-0.542C0.338,-0.542 0.381,-0.529 0.409,-0.502C0.438,-0.475 0.452,-0.434 0.452,-0.377L0.452,-0.137C0.452,-0.082 0.469,-0.055 0.502,-0.055C0.507,-0.055 0.513,-0.055 0.521,-0.057L0.528,-0.003C0.506,0.007 0.482,0.012 0.456,0.012C0.411,0.012 0.382,-0.014 0.37,-0.067ZM0.355,-0.12L0.355,-0.257L0.323,-0.258C0.271,-0.258 0.228,-0.248 0.195,-0.228C0.163,-0.208 0.146,-0.181 0.146,-0.149C0.146,-0.126 0.155,-0.106 0.171,-0.09C0.187,-0.074 0.207,-0.066 0.23,-0.066C0.271,-0.066 0.312,-0.084 0.355,-0.12Z" style="fill:rgb(32,45,102);fill-rule:nonzero;"/>
            </g>
            <g transform="matrix(45.0289,0,0,45.0289,79.8944,129.003)">
                <path d="M0.303,0.012C0.232,0.012 0.172,-0.014 0.125,-0.067C0.078,-0.12 0.054,-0.187 0.054,-0.268C0.054,-0.354 0.078,-0.422 0.124,-0.47C0.171,-0.518 0.236,-0.542 0.32,-0.542C0.361,-0.542 0.407,-0.536 0.458,-0.525L0.458,-0.444C0.404,-0.46 0.36,-0.468 0.326,-0.468C0.277,-0.468 0.237,-0.45 0.207,-0.413C0.177,-0.376 0.163,-0.327 0.163,-0.265C0.163,-0.206 0.178,-0.157 0.208,-0.121C0.239,-0.084 0.279,-0.065 0.329,-0.065C0.373,-0.065 0.418,-0.077 0.464,-0.099L0.464,-0.016C0.402,0.003 0.348,0.012 0.303,0.012Z" style="fill:rgb(32,45,102);fill-rule:nonzero;"/>
            </g>
            <g transform="matrix(45.0289,0,0,45.0289,100.356,129.003)">
                <path d="M0.255,0.012C0.207,0.012 0.168,-0.002 0.141,-0.03C0.114,-0.058 0.1,-0.097 0.1,-0.146L0.1,-0.458L0.034,-0.458L0.034,-0.53L0.1,-0.53L0.1,-0.626L0.196,-0.636L0.196,-0.53L0.335,-0.53L0.335,-0.458L0.196,-0.458L0.196,-0.164C0.196,-0.095 0.226,-0.06 0.286,-0.06C0.299,-0.06 0.314,-0.062 0.333,-0.066L0.333,-0C0.303,0.008 0.277,0.012 0.255,0.012Z" style="fill:rgb(32,45,102);fill-rule:nonzero;"/>
            </g>
            <g transform="matrix(45.0289,0,0,45.0289,114.596,129.003)">
                <path d="M0.096,-0L0.096,-0.53L0.192,-0.53L0.192,-0L0.096,-0ZM0.096,-0.626L0.096,-0.723L0.192,-0.723L0.192,-0.626L0.096,-0.626Z" style="fill:rgb(32,45,102);fill-rule:nonzero;"/>
            </g>
            <g transform="matrix(45.0289,0,0,45.0289,125.01,129.003)">
                <path d="M0.255,0.012C0.207,0.012 0.168,-0.002 0.141,-0.03C0.114,-0.058 0.1,-0.097 0.1,-0.146L0.1,-0.458L0.034,-0.458L0.034,-0.53L0.1,-0.53L0.1,-0.626L0.196,-0.636L0.196,-0.53L0.335,-0.53L0.335,-0.458L0.196,-0.458L0.196,-0.164C0.196,-0.095 0.226,-0.06 0.286,-0.06C0.299,-0.06 0.314,-0.062 0.333,-0.066L0.333,-0C0.303,0.008 0.277,0.012 0.255,0.012Z" style="fill:rgb(32,45,102);fill-rule:nonzero;"/>
            </g>
            <g transform="matrix(45.0289,0,0,45.0289,139.25,129.003)">
                <path d="M0.096,-0L0.096,-0.53L0.192,-0.53L0.192,-0L0.096,-0ZM0.096,-0.626L0.096,-0.723L0.192,-0.723L0.192,-0.626L0.096,-0.626Z" style="fill:rgb(32,45,102);fill-rule:nonzero;"/>
            </g>
            <g transform="matrix(45.0289,0,0,45.0289,149.664,129.003)">
                <path d="M0.304,0.012C0.228,0.012 0.167,-0.013 0.122,-0.063C0.077,-0.114 0.054,-0.181 0.054,-0.265C0.054,-0.35 0.077,-0.418 0.122,-0.468C0.168,-0.517 0.229,-0.542 0.307,-0.542C0.385,-0.542 0.447,-0.517 0.492,-0.468C0.537,-0.418 0.56,-0.351 0.56,-0.266C0.56,-0.18 0.537,-0.111 0.492,-0.062C0.446,-0.013 0.383,0.012 0.304,0.012ZM0.305,-0.06C0.407,-0.06 0.458,-0.129 0.458,-0.266C0.458,-0.402 0.408,-0.47 0.307,-0.47C0.207,-0.47 0.157,-0.402 0.157,-0.265C0.157,-0.128 0.206,-0.06 0.305,-0.06Z" style="fill:rgb(32,45,102);fill-rule:nonzero;"/>
            </g>
            <g transform="matrix(45.0289,0,0,45.0289,174.722,129.003)">
                <path d="M0.096,-0L0.096,-0.53L0.192,-0.53L0.192,-0.431C0.243,-0.505 0.305,-0.542 0.379,-0.542C0.425,-0.542 0.461,-0.527 0.489,-0.498C0.516,-0.469 0.53,-0.43 0.53,-0.381L0.53,-0L0.434,-0L0.434,-0.35C0.434,-0.389 0.428,-0.417 0.416,-0.434C0.405,-0.451 0.386,-0.459 0.359,-0.459C0.3,-0.459 0.244,-0.42 0.192,-0.343L0.192,-0L0.096,-0Z" style="fill:rgb(32,45,102);fill-rule:nonzero;"/>
            </g>
            <g transform="matrix(45.0289,0,0,45.0289,200.065,129.003)">
                <path d="M0.485,-0.017C0.42,0.002 0.365,0.012 0.319,0.012C0.241,0.012 0.177,-0.014 0.128,-0.066C0.079,-0.118 0.054,-0.185 0.054,-0.268C0.054,-0.348 0.076,-0.414 0.119,-0.465C0.163,-0.517 0.218,-0.542 0.286,-0.542C0.35,-0.542 0.4,-0.52 0.435,-0.474C0.47,-0.429 0.487,-0.364 0.487,-0.28L0.487,-0.25L0.152,-0.25C0.166,-0.124 0.228,-0.061 0.337,-0.061C0.377,-0.061 0.427,-0.072 0.485,-0.093L0.485,-0.017ZM0.157,-0.322L0.391,-0.322C0.391,-0.421 0.354,-0.47 0.28,-0.47C0.206,-0.47 0.165,-0.421 0.157,-0.322Z" style="fill:rgb(32,45,102);fill-rule:nonzero;"/>
            </g>
            <g transform="matrix(45.0289,0,0,45.0289,222.55,129.003)">
                <path d="M0.096,-0L0.096,-0.53L0.192,-0.53L0.192,-0.431C0.23,-0.505 0.286,-0.542 0.358,-0.542C0.368,-0.542 0.378,-0.541 0.389,-0.54L0.389,-0.45C0.373,-0.455 0.358,-0.458 0.345,-0.458C0.284,-0.458 0.233,-0.422 0.192,-0.35L0.192,-0L0.096,-0Z" style="fill:rgb(32,45,102);fill-rule:nonzero;"/>
            </g>
            <g transform="matrix(45.0289,0,0,45.0289,250.018,129.003)">
                <path d="M0.235,0.018C0.186,0.018 0.124,0.007 0.049,-0.014L0.049,-0.115C0.13,-0.077 0.197,-0.059 0.25,-0.059C0.29,-0.059 0.322,-0.069 0.347,-0.09C0.372,-0.111 0.384,-0.139 0.384,-0.174C0.384,-0.202 0.376,-0.226 0.36,-0.246C0.344,-0.266 0.314,-0.288 0.271,-0.313L0.221,-0.341C0.159,-0.376 0.116,-0.41 0.091,-0.441C0.065,-0.472 0.053,-0.508 0.053,-0.549C0.053,-0.605 0.073,-0.651 0.113,-0.687C0.154,-0.723 0.205,-0.741 0.268,-0.741C0.323,-0.741 0.382,-0.731 0.444,-0.713L0.444,-0.619C0.368,-0.649 0.311,-0.664 0.273,-0.664C0.238,-0.664 0.209,-0.655 0.186,-0.636C0.162,-0.617 0.151,-0.593 0.151,-0.564C0.151,-0.54 0.159,-0.519 0.176,-0.5C0.193,-0.482 0.224,-0.46 0.269,-0.434L0.321,-0.405C0.383,-0.369 0.427,-0.336 0.452,-0.304C0.476,-0.273 0.489,-0.235 0.489,-0.19C0.489,-0.128 0.466,-0.077 0.419,-0.039C0.373,-0.001 0.311,0.018 0.235,0.018Z" style="fill:rgb(32,45,102);fill-rule:nonzero;"/>
            </g>
            <g transform="matrix(45.0289,0,0,45.0289,271.667,129.003)">
                <path d="M0.428,-0L0.428,-0.1C0.377,-0.025 0.315,0.012 0.242,0.012C0.195,0.012 0.159,-0.002 0.131,-0.031C0.104,-0.061 0.09,-0.1 0.09,-0.149L0.09,-0.53L0.187,-0.53L0.187,-0.181C0.187,-0.141 0.192,-0.113 0.204,-0.096C0.215,-0.079 0.235,-0.071 0.262,-0.071C0.32,-0.071 0.376,-0.109 0.428,-0.187L0.428,-0.53L0.524,-0.53L0.524,-0L0.428,-0Z" style="fill:rgb(32,45,102);fill-rule:nonzero;"/>
            </g>
            <g transform="matrix(45.0289,0,0,45.0289,297.01,129.003)">
                <path d="M0.096,0.193L0.096,-0.53L0.192,-0.53L0.192,-0.431C0.232,-0.505 0.291,-0.542 0.37,-0.542C0.433,-0.542 0.484,-0.519 0.52,-0.472C0.557,-0.426 0.575,-0.362 0.575,-0.281C0.575,-0.193 0.554,-0.122 0.513,-0.069C0.471,-0.015 0.417,0.012 0.349,0.012C0.286,0.012 0.234,-0.012 0.192,-0.06L0.192,0.193L0.096,0.193ZM0.192,-0.126C0.242,-0.082 0.289,-0.06 0.334,-0.06C0.426,-0.06 0.473,-0.131 0.473,-0.271C0.473,-0.396 0.432,-0.458 0.35,-0.458C0.296,-0.458 0.243,-0.429 0.192,-0.371L0.192,-0.126Z" style="fill:rgb(32,45,102);fill-rule:nonzero;"/>
            </g>
            <g transform="matrix(45.0289,0,0,45.0289,322.749,129.003)">
                <path d="M0.096,0.193L0.096,-0.53L0.192,-0.53L0.192,-0.431C0.232,-0.505 0.291,-0.542 0.37,-0.542C0.433,-0.542 0.484,-0.519 0.52,-0.472C0.557,-0.426 0.575,-0.362 0.575,-0.281C0.575,-0.193 0.554,-0.122 0.513,-0.069C0.471,-0.015 0.417,0.012 0.349,0.012C0.286,0.012 0.234,-0.012 0.192,-0.06L0.192,0.193L0.096,0.193ZM0.192,-0.126C0.242,-0.082 0.289,-0.06 0.334,-0.06C0.426,-0.06 0.473,-0.131 0.473,-0.271C0.473,-0.396 0.432,-0.458 0.35,-0.458C0.296,-0.458 0.243,-0.429 0.192,-0.371L0.192,-0.126Z" style="fill:rgb(32,45,102);fill-rule:nonzero;"/>
            </g>
            <g transform="matrix(45.0289,0,0,45.0289,348.488,129.003)">
                <rect x="0.096" y="-0.771" width="0.096" height="0.771" style="fill:rgb(32,45,102);fill-rule:nonzero;"/>
            </g>
            <g transform="matrix(45.0289,0,0,45.0289,358.902,129.003)">
                <path d="M0.096,-0L0.096,-0.53L0.192,-0.53L0.192,-0L0.096,-0ZM0.096,-0.626L0.096,-0.723L0.192,-0.723L0.192,-0.626L0.096,-0.626Z" style="fill:rgb(32,45,102);fill-rule:nonzero;"/>
            </g>
            <g transform="matrix(45.0289,0,0,45.0289,369.316,129.003)">
                <path d="M0.485,-0.017C0.42,0.002 0.365,0.012 0.319,0.012C0.241,0.012 0.177,-0.014 0.128,-0.066C0.079,-0.118 0.054,-0.185 0.054,-0.268C0.054,-0.348 0.076,-0.414 0.119,-0.465C0.163,-0.517 0.218,-0.542 0.286,-0.542C0.35,-0.542 0.4,-0.52 0.435,-0.474C0.47,-0.429 0.487,-0.364 0.487,-0.28L0.487,-0.25L0.152,-0.25C0.166,-0.124 0.228,-0.061 0.337,-0.061C0.377,-0.061 0.427,-0.072 0.485,-0.093L0.485,-0.017ZM0.157,-0.322L0.391,-0.322C0.391,-0.421 0.354,-0.47 0.28,-0.47C0.206,-0.47 0.165,-0.421 0.157,-0.322Z" style="fill:rgb(32,45,102);fill-rule:nonzero;"/>
            </g>
            <g transform="matrix(45.0289,0,0,45.0289,391.801,129.003)">
                <path d="M0.096,-0L0.096,-0.53L0.192,-0.53L0.192,-0.431C0.23,-0.505 0.286,-0.542 0.358,-0.542C0.368,-0.542 0.378,-0.541 0.389,-0.54L0.389,-0.45C0.373,-0.455 0.358,-0.458 0.345,-0.458C0.284,-0.458 0.233,-0.422 0.192,-0.35L0.192,-0L0.096,-0Z" style="fill:rgb(32,45,102);fill-rule:nonzero;"/>
            </g>
        </g>
    </g>
</svg>
