<?xml version="1.0" encoding="UTF-8" standalone="no"?>
<!DOCTYPE svg PUBLIC "-//W3C//DTD SVG 1.1//EN" "http://www.w3.org/Graphics/SVG/1.1/DTD/svg11.dtd">
<svg width="100%" height="100%" viewBox="0 0 1181 1087" version="1.1" xmlns="http://www.w3.org/2000/svg" xmlns:xlink="http://www.w3.org/1999/xlink" xml:space="preserve" xmlns:serif="http://www.serif.com/" style="fill-rule:evenodd;clip-rule:evenodd;stroke-linejoin:round;stroke-miterlimit:2;">
    <rect id="rect1425" x="0" y="0" width="1181" height="1087" style="fill:white;"/>
    <g id="g20" transform="matrix(0.1,0,0,-0.1,0,1087)">
        <path id="path4" d="M0,10870L0,0L11810,0L11810,10870L0,10870ZM6125,9616C6407,9606 6743,9551 7043,9465C7965,9201 8755,8628 9323,7814C9354,7769 9380,7727 9380,7721C9380,7713 9335,7710 9236,7710L9092,7710L9046,7775C8919,7951 8671,8227 8508,8372L8438,8434L8267,8391C7961,8316 7624,8255 7288,8214C7212,8204 7150,8193 7150,8190C7150,8186 7164,8138 7181,8084C7220,7955 7280,7739 7280,7723C7280,7713 7249,7710 7155,7710L7031,7710L7014,7768C7006,7799 6989,7857 6979,7895C6947,8005 6898,8154 6890,8163C6886,8168 6820,8167 6744,8161C6669,8155 6456,8145 6272,8138C5919,8126 5422,8137 5090,8165C5005,8172 4932,8175 4928,8171C4920,8163 4848,7938 4814,7811L4787,7710L4664,7710C4551,7710 4540,7712 4540,7728C4540,7750 4597,7962 4640,8099C4657,8151 4667,8197 4662,8201C4658,8204 4608,8213 4550,8219C4277,8250 3881,8323 3578,8397L3391,8443L3338,8398C3177,8260 2918,7976 2785,7793L2725,7710L2578,7710C2496,7710 2430,7713 2430,7716C2430,7729 2590,7951 2680,8065C3064,8546 3534,8924 4090,9199C4514,9409 4928,9532 5415,9595C5538,9611 5864,9628 5940,9623C5959,9622 6043,9618 6125,9616ZM5655,7329C5811,7310 5899,7306 6318,7303L6800,7299L6800,6220L5941,6220L5938,6337L5935,6455L5875,6479C5703,6547 5472,6584 5215,6585C4962,6585 4848,6563 4739,6490C4627,6417 4611,6268 4704,6176C4801,6078 4920,6047 5450,5981C5908,5923 6085,5886 6307,5799C6414,5757 6549,5678 6633,5607C6757,5504 6859,5334 6906,5154C6941,5020 6951,4762 6926,4625C6883,4391 6795,4223 6634,4070C6460,3904 6236,3795 5927,3726C5586,3649 5103,3637 4619,3692C4453,3710 4357,3714 3958,3717L3490,3721L3490,4790L4350,4790L4350,4570L4389,4550C4516,4486 4777,4439 5052,4433C5526,4421 5739,4505 5740,4705C5740,4783 5718,4825 5652,4871C5556,4939 5421,4970 4990,5025C4472,5092 4267,5139 4042,5245C3683,5415 3506,5674 3470,6082C3450,6298 3485,6500 3570,6676C3761,7071 4198,7298 4875,7354C5011,7365 5481,7350 5655,7329ZM9440,7335C9886,7268 10241,7100 10516,6826C10851,6491 11013,6061 11012,5510C11012,5246 10983,5048 10914,4840C10679,4134 10070,3712 9213,3661C8764,3635 8307,3724 7980,3902C7759,4022 7524,4233 7397,4425C7243,4659 7148,4927 7110,5240C7095,5365 7098,5681 7115,5812C7197,6432 7529,6902 8063,7155C8286,7260 8527,7323 8825,7354C8925,7364 9330,7352 9440,7335ZM3230,7290L3230,6400L2650,6400L2650,4600L3230,4600L3230,3710L2078,3712L925,3715L922,4158L920,4600L1500,4600L1500,6400L1213,6402L925,6405L922,6848L920,7290L3230,7290ZM2760,3243C2887,3063 3165,2754 3322,2618L3379,2569L3542,2609C3855,2686 4165,2743 4485,2782C4584,2794 4666,2805 4668,2806C4670,2807 4657,2852 4640,2907C4599,3036 4540,3250 4540,3272C4540,3288 4552,3290 4664,3290L4787,3290L4814,3193C4829,3139 4860,3035 4882,2961L4924,2828L4980,2834C5303,2867 6145,2876 6540,2850C6664,2842 6794,2835 6829,2835L6894,2835L6928,2940C6947,2998 6977,3099 6995,3165L7028,3285L7154,3288C7238,3290 7280,3287 7280,3280C7280,3263 7193,2951 7166,2873L7141,2801L7173,2796C7191,2793 7261,2783 7330,2775C7623,2738 7987,2669 8263,2599C8406,2562 8423,2560 8443,2573C8491,2605 8707,2820 8811,2937C8871,3006 8959,3113 9006,3176L9093,3290L9236,3290C9315,3290 9380,3286 9380,3282C9380,3269 9248,3079 9171,2980C8481,2091 7462,1523 6335,1398C6149,1378 5611,1381 5435,1403C4520,1521 3749,1881 3080,2503C2850,2717 2562,3063 2436,3278C2430,3287 2461,3290 2578,3290L2727,3290L2760,3243Z" style="fill:rgb(49,81,164);fill-rule:nonzero;"/>
        <path id="path6" d="M5769,9367C5538,9288 5318,9038 5116,8625C5070,8532 5030,8447 5027,8438C5022,8424 5030,8420 5073,8415C5321,8388 5971,8374 6325,8389C6750,8407 6790,8410 6790,8429C6790,8454 6640,8755 6576,8857C6446,9067 6317,9213 6185,9300C6046,9390 5905,9413 5769,9367Z" style="fill:rgb(49,81,164);fill-rule:nonzero;"/>
        <path id="path8" d="M5210,9328C4674,9215 4236,9034 3778,8734C3666,8661 3630,8630 3658,8630C3662,8630 3726,8616 3800,8600C4042,8545 4547,8462 4723,8448L4761,8445L4803,8545C4925,8830 5115,9141 5269,9303C5303,9339 5303,9340 5280,9339C5266,9338 5235,9334 5210,9328Z" style="fill:rgb(49,81,164);fill-rule:nonzero;"/>
        <path id="path10" d="M6555,9298C6624,9218 6738,9061 6796,8968C6867,8853 6974,8643 7020,8526L7055,8439L7120,8445C7435,8476 8180,8607 8180,8632C8180,8637 8116,8683 8038,8734C7612,9015 7140,9215 6671,9314C6510,9348 6511,9348 6555,9298Z" style="fill:rgb(49,81,164);fill-rule:nonzero;"/>
        <path id="path12" d="M8921,6509C8588,6458 8394,6221 8334,5793C8311,5626 8319,5267 8349,5127C8444,4689 8689,4484 9094,4503C9305,4513 9420,4559 9545,4685C9719,4858 9789,5097 9790,5510C9790,5849 9741,6064 9623,6242C9541,6367 9408,6459 9260,6495C9177,6514 9004,6522 8921,6509Z" style="fill:rgb(49,81,164);fill-rule:nonzero;"/>
        <path id="path14" d="M5480,2614C5210,2599 5025,2588 5022,2585C5014,2577 5140,2318 5206,2204C5348,1960 5488,1796 5632,1702C5726,1641 5783,1621 5876,1613C5967,1606 6033,1621 6135,1673C6250,1732 6416,1899 6529,2070C6604,2183 6790,2538 6790,2568C6790,2584 6769,2587 6575,2600C6411,2611 5612,2621 5480,2614Z" style="fill:rgb(49,81,164);fill-rule:nonzero;"/>
        <path id="path16" d="M4655,2553C4639,2551 4543,2538 4442,2524C4202,2491 4014,2459 3803,2414C3669,2385 3633,2374 3641,2364C3659,2342 3922,2173 4054,2100C4396,1909 4768,1768 5140,1690C5217,1673 5285,1660 5291,1660C5297,1660 5278,1688 5248,1723C5086,1908 4933,2160 4809,2445L4761,2555L4723,2556C4702,2557 4672,2556 4655,2553Z" style="fill:rgb(49,81,164);fill-rule:nonzero;"/>
        <path id="path18" d="M7031,2497C6994,2403 6870,2157 6805,2050C6735,1934 6650,1816 6576,1731C6545,1695 6522,1665 6524,1662C6535,1651 6875,1733 7057,1791C7384,1895 7796,2099 8094,2304L8182,2365L8129,2377C7861,2439 7540,2497 7285,2530C7197,2541 7109,2552 7090,2555C7055,2559 7055,2559 7031,2497Z" style="fill:rgb(49,81,164);fill-rule:nonzero;"/>
    </g>
</svg>
