<?xml version="1.0" encoding="UTF-8" standalone="no"?>
<!DOCTYPE svg PUBLIC "-//W3C//DTD SVG 1.1//EN" "http://www.w3.org/Graphics/SVG/1.1/DTD/svg11.dtd">
<svg width="100%" height="100%" viewBox="0 0 1092 863" version="1.1" xmlns="http://www.w3.org/2000/svg" xmlns:xlink="http://www.w3.org/1999/xlink" xml:space="preserve" xmlns:serif="http://www.serif.com/" style="fill-rule:evenodd;clip-rule:evenodd;stroke-linejoin:round;stroke-miterlimit:2;">
    <g transform="matrix(4.16667,0,0,4.16667,0,0)">
        <path d="M204.797,64.524C202.694,64.524 200.617,64.639 198.574,64.863C203.502,76.902 206.218,90.08 206.218,103.892C206.218,118.743 203.077,132.863 197.425,145.619C207.656,152.18 213.558,164.397 211.479,177.133C239.533,173.827 261.297,149.967 261.297,121.024C261.297,89.82 236.001,64.524 204.797,64.524Z" style="fill:rgb(252,218,20);fill-rule:nonzero;"/>
        <path d="M103.108,0.783C46.162,0.783 0,46.947 0,103.892C0,160.837 46.162,207 103.108,207C122.593,207 140.815,201.595 156.358,192.203C150.687,185.4 147.911,176.252 149.506,166.834C150.528,160.79 153.212,155.446 157.013,151.186C151.492,142.458 148.297,132.114 148.297,121.024C148.297,91.923 170.298,67.96 198.574,64.863C183.188,27.268 146.24,0.783 103.108,0.783Z" style="fill:rgb(34,196,244);fill-rule:nonzero;"/>
        <path d="M198.574,64.863C170.298,67.96 148.297,91.923 148.297,121.024C148.297,132.114 151.492,142.458 157.013,151.186C162.853,144.64 171.323,140.659 180.438,140.659C182.178,140.659 183.945,140.805 185.719,141.106C190.021,141.834 193.97,143.404 197.425,145.619C203.077,132.863 206.218,118.743 206.218,103.892C206.218,90.08 203.502,76.902 198.574,64.863Z" style="fill:rgb(33,168,74);fill-rule:nonzero;"/>
        <path d="M180.486,172.041C173.536,179.926 165.402,186.739 156.358,192.203C160.987,197.757 167.547,201.748 175.233,203.049C177.007,203.349 178.771,203.494 180.512,203.494C195.559,203.494 208.854,192.651 211.447,177.32C211.458,177.257 211.468,177.196 211.479,177.133C209.287,177.391 207.058,177.524 204.797,177.524C196.093,177.524 187.851,175.556 180.486,172.041Z" style="fill:rgb(247,148,45);fill-rule:nonzero;"/>
        <path d="M197.425,145.619C193.135,155.301 187.396,164.201 180.486,172.041C187.851,175.556 196.093,177.524 204.797,177.524C207.058,177.524 209.287,177.391 211.479,177.133C213.558,164.397 207.656,152.18 197.425,145.619Z" style="fill:rgb(245,127,31);fill-rule:nonzero;"/>
        <path d="M157.013,151.186C153.212,155.446 150.528,160.79 149.506,166.834C147.911,176.252 150.687,185.4 156.358,192.203C165.402,186.739 173.536,179.926 180.486,172.041C170.833,167.432 162.691,160.164 157.013,151.186Z" style="fill:rgb(32,115,57);fill-rule:nonzero;"/>
        <path d="M180.438,140.659C171.323,140.659 162.853,144.64 157.013,151.186C162.691,160.164 170.833,167.432 180.486,172.041C187.396,164.201 193.135,155.301 197.425,145.619C193.97,143.404 190.021,141.834 185.719,141.106C183.945,140.805 182.178,140.659 180.438,140.659Z" style="fill:rgb(37,99,49);fill-rule:nonzero;"/>
        <path d="M25.964,90.203L30.434,90.203L37.29,60.64L32.225,60.64L33.296,55.812L48.913,55.812L47.78,60.64L42.714,60.64L35.799,90.262L48.019,90.262L49.39,84.481L54.576,84.481L52.132,95.031L24.834,95.031L25.964,90.203Z" style="fill:white;fill-rule:nonzero;"/>
        <path d="M61.49,61.535C61.49,59.628 63.039,58.077 64.948,58.077C66.794,58.077 68.404,59.628 68.404,61.535C68.404,63.442 66.794,64.992 64.948,64.992C63.039,64.992 61.49,63.442 61.49,61.535ZM56.483,90.262C56.483,89.49 56.663,88.357 56.901,87.463L60.477,73.754L55.649,73.754L56.782,69.343L66.855,69.343L62.086,87.521C61.789,88.536 61.668,89.549 61.668,90.144C61.668,91.277 62.265,91.933 63.218,91.933C64.41,91.933 65.485,91.039 66.736,87.761L69.059,88.595C67.511,93.721 65.006,95.45 61.848,95.45C58.389,95.45 56.483,93.364 56.483,90.262Z" style="fill:white;fill-rule:nonzero;"/>
        <path d="M73.112,73.754L68.643,73.754L69.775,69.343L77.643,69.343L80.623,89.787C85.21,84.84 88.551,79.773 89.563,75.841C88.252,75.362 87.06,74.23 87.06,72.443C87.06,70.476 88.611,68.866 90.637,68.866C92.901,68.866 94.569,70.595 94.569,73.455C94.569,78.88 88.968,87.463 80.623,95.748L77.224,95.748L73.112,73.754Z" style="fill:white;fill-rule:nonzero;"/>
        <path d="M102.617,61.535C102.617,59.628 104.168,58.077 106.073,58.077C107.923,58.077 109.531,59.628 109.531,61.535C109.531,63.442 107.923,64.992 106.073,64.992C104.168,64.992 102.617,63.442 102.617,61.535ZM97.611,90.262C97.611,89.49 97.788,88.357 98.027,87.463L101.604,73.754L96.778,73.754L97.907,69.343L107.981,69.343L103.213,87.521C102.916,88.536 102.796,89.549 102.796,90.144C102.796,91.277 103.393,91.933 104.347,91.933C105.538,91.933 106.61,91.039 107.862,87.761L110.188,88.595C108.639,93.721 106.135,95.45 102.975,95.45C99.517,95.45 97.611,93.364 97.611,90.262Z" style="fill:white;fill-rule:nonzero;"/>
        <path d="M127.889,90.323C127.889,89.49 128.069,88.357 128.308,87.402L130.511,79.655C130.81,78.641 130.929,77.866 130.929,77.031C130.929,74.766 129.379,73.277 127.055,73.277C123.895,73.277 120.916,75.959 119.604,81.086L116.147,95.031L110.901,95.031L116.267,73.754L111.498,73.754L112.63,69.343L121.811,69.343L120.438,75.362C122.465,71.786 125.804,68.926 129.32,68.926C133.252,68.926 136.294,71.608 136.294,76.198C136.294,77.45 136.055,78.88 135.638,80.37L133.433,87.939C133.252,88.715 133.074,89.549 133.074,90.025C133.074,91.218 133.672,91.933 134.684,91.933C135.697,91.933 136.83,91.039 138.021,87.761L140.347,88.595C138.977,93.244 136.532,95.45 133.373,95.45C129.856,95.45 127.889,93.302 127.889,90.323Z" style="fill:white;fill-rule:nonzero;"/>
        <path d="M160.852,79.594C160.852,75.781 158.349,73.455 154.651,73.455C149.646,73.455 145.832,78.224 145.832,84.065C145.832,87.88 148.336,90.262 151.91,90.262C157.037,90.262 160.852,85.137 160.852,79.594ZM140.05,103.971C138.917,102.841 138.56,101.887 138.56,100.636C138.56,98.549 139.989,97.118 141.838,97.118C143.686,97.118 144.997,98.609 144.997,100.338C144.997,100.872 144.877,101.469 144.639,101.887C145.414,102.363 146.964,102.841 148.93,102.841C151.374,102.841 153.104,102.185 154.592,100.694C155.964,99.384 156.797,97.297 157.453,94.496L158.587,89.667C156.381,92.768 153.281,94.734 149.766,94.734C143.982,94.734 140.406,90.62 140.406,84.423C140.406,76.079 146.189,68.866 153.997,68.866C158.409,68.866 161.03,71.845 161.924,74.706L163.533,69.224L168.36,69.224L162.222,95.687C161.448,99.145 160.374,101.708 158.468,103.674C156.202,105.881 153.222,106.952 149.049,106.952C145.474,106.952 141.6,105.522 140.05,103.971Z" style="fill:white;fill-rule:nonzero;"/>
        <path d="M58.867,105.447L54.635,105.447L55.767,100.62L70.192,100.62L69.119,105.447L64.172,105.447L65.364,130.123L79.907,104.911L82.47,104.911L86.821,130.241L98.862,105.447L94.093,105.447L95.165,100.62L109.649,100.62L108.517,105.447L104.762,105.447L86.94,140.256L84.019,140.256L79.312,115.282L64.232,140.256L61.37,140.317L58.867,105.447Z" style="fill:white;fill-rule:nonzero;"/>
        <path d="M119.068,124.58C119.068,120.766 117.161,118.261 113.229,118.261C108.221,118.261 104.467,123.686 104.467,129.468C104.467,133.222 106.313,135.846 109.891,135.846C115.135,135.846 119.068,130.184 119.068,124.58ZM99.043,130.065C99.043,121.302 105.121,113.673 112.572,113.673C116.446,113.673 119.367,116.475 120.262,119.752L121.93,114.03L126.816,114.03L122.288,132.328C121.988,133.403 121.811,134.356 121.811,134.951C121.811,136.083 122.348,136.739 123.359,136.739C124.314,136.739 125.506,135.846 126.698,132.567L129.022,133.403C127.473,138.528 124.79,140.256 121.93,140.256C118.89,140.256 116.983,138.17 116.983,135.072L116.983,134.772C114.777,137.813 111.679,140.317 107.804,140.317C102.677,140.317 99.043,136.323 99.043,130.065Z" style="fill:white;fill-rule:nonzero;"/>
        <path d="M150.423,124.403C150.423,120.586 147.918,118.261 144.223,118.261C139.215,118.261 135.401,123.03 135.401,128.871C135.401,132.686 137.903,135.072 141.48,135.072C146.606,135.072 150.423,129.946 150.423,124.403ZM129.619,148.78C128.487,147.647 128.129,146.695 128.129,145.442C128.129,143.356 129.561,141.924 131.408,141.924C133.255,141.924 134.566,143.415 134.566,145.143C134.566,145.681 134.448,146.277 134.208,146.695C134.984,147.17 136.533,147.647 138.5,147.647C140.944,147.647 142.672,146.991 144.163,145.5C145.533,144.189 146.368,142.104 147.024,139.303L148.156,134.474C145.95,137.575 142.852,139.541 139.335,139.541C133.554,139.541 129.977,135.428 129.977,129.231C129.977,120.885 135.759,113.673 143.566,113.673C147.978,113.673 150.601,116.653 151.493,119.516L153.104,114.03L157.932,114.03L151.792,140.494C151.018,143.951 149.945,146.516 148.037,148.482C145.771,150.686 142.792,151.759 138.619,151.759C135.045,151.759 131.17,150.33 129.619,148.78Z" style="fill:white;fill-rule:nonzero;"/>
        <path d="M163.714,124.879L177.064,124.879C177.302,124.164 177.423,123.387 177.423,122.672C177.423,119.991 175.633,118.024 171.938,118.024C168.243,118.024 165.083,120.825 163.714,124.879ZM162.998,128.635L162.998,129.527C162.998,133.403 166.098,135.965 170.745,135.965C173.487,135.965 175.991,135.369 179.211,133.641L178.197,138.528C175.516,139.839 173.309,140.317 169.673,140.317C163.534,140.317 157.872,136.441 157.872,129.408C157.872,120.706 164.308,113.673 171.938,113.673C178.197,113.673 182.311,117.25 182.311,123.268C182.311,124.879 182.012,126.666 181.354,128.635L162.998,128.635Z" style="fill:white;fill-rule:nonzero;"/>
        <path d="M88.904,174.574L91.319,174.574L95.073,158.336L92.367,158.336L92.716,156.882L106.451,156.882L105.433,161.217L103.832,161.217L104.501,158.336L96.732,158.336L95.073,165.524L101.417,165.524L101.097,166.979L94.753,166.979L92.978,174.574L100.748,174.574L101.417,171.693L103.018,171.693L102.028,176.029L88.555,176.029L88.904,174.574Z" style="fill:white;fill-rule:nonzero;"/>
        <path d="M107.962,165.146L105.634,165.146L105.983,163.807L109.737,163.807L108.952,166.746C110.145,164.825 111.658,163.575 113.316,163.575C115.208,163.575 116.43,164.709 116.488,166.63C117.681,164.768 119.282,163.575 120.882,163.575C122.803,163.575 124.111,164.942 124.111,166.746C124.111,167.358 123.937,168.027 123.763,168.666L122.512,172.945C122.395,173.352 122.308,173.905 122.308,174.137C122.308,174.719 122.686,175.098 123.21,175.098C123.85,175.098 124.345,174.516 124.897,173.177L125.799,173.468C125.217,175.185 124.345,176.203 123.006,176.203C121.726,176.203 120.795,175.36 120.795,174.137C120.795,173.817 120.911,173.206 121.027,172.799L122.278,168.463C122.453,167.823 122.569,167.328 122.569,166.804C122.569,165.699 121.842,164.884 120.649,164.884C118.903,164.884 116.721,166.776 115.819,170.238L114.306,176.029L112.792,176.029L114.742,168.463C114.917,167.823 115.033,167.328 115.033,166.804C115.033,165.699 114.277,164.884 113.083,164.884C111.367,164.884 109.039,166.804 108.195,170.209L106.74,176.029L105.227,176.029L107.962,165.146Z" style="fill:white;fill-rule:nonzero;"/>
        <path d="M138.163,168.9C138.163,166.485 136.912,164.942 134.817,164.942C131.907,164.942 129.608,168.375 129.608,171.228C129.608,173.352 130.976,174.894 133.246,174.894C136.126,174.894 138.163,171.926 138.163,168.9ZM123.963,180.394L125.854,180.394L129.521,165.146L127.193,165.146L127.514,163.807L131.267,163.807L130.714,166.164C131.703,164.768 133.158,163.575 135.079,163.575C137.727,163.575 139.793,165.582 139.793,168.725C139.793,173.002 136.621,176.261 133.274,176.261C131.238,176.261 129.578,175.126 129.056,173.323L127.396,180.394L130.074,180.394L129.754,181.732L123.644,181.732L123.963,180.394Z" style="fill:white;fill-rule:nonzero;"/>
        <path d="M141.595,174.137C141.595,173.817 141.711,173.352 141.798,172.915L145.727,156.067L143.428,156.067L143.748,154.729L147.56,154.729L143.312,172.915C143.224,173.352 143.107,173.905 143.107,174.137C143.107,174.719 143.486,175.098 144.01,175.098C144.649,175.098 145.145,174.516 145.697,173.177L146.6,173.468C146.018,175.185 145.145,176.203 143.806,176.203C142.525,176.203 141.595,175.36 141.595,174.137Z" style="fill:white;fill-rule:nonzero;"/>
        <path d="M158.354,168.783C158.354,166.455 156.783,164.942 154.688,164.942C151.72,164.942 149.392,167.793 149.392,171.053C149.392,173.38 150.963,174.894 153.059,174.894C156.026,174.894 158.354,172.042 158.354,168.783ZM147.85,171.024C147.85,167.154 150.847,163.575 154.775,163.575C158.005,163.575 159.896,165.96 159.896,168.812C159.896,172.682 156.899,176.261 152.971,176.261C149.741,176.261 147.85,173.875 147.85,171.024Z" style="fill:white;fill-rule:nonzero;"/>
        <path d="M157.479,180.394C157.479,179.724 157.974,179.084 158.701,179.084C159.429,179.084 159.865,179.608 159.924,180.422L160.069,180.422C160.768,180.422 162.339,179.317 165.045,175.999L162.862,165.146L160.593,165.146L160.913,163.807L164.23,163.807L166.18,174.544C168.508,171.518 170.836,168.23 171.243,166.281C170.661,166.106 170.05,165.612 170.05,164.825C170.05,164.186 170.603,163.575 171.359,163.575C172.145,163.575 172.785,164.157 172.785,165.291C172.785,167.415 171.01,170.267 166.529,175.97C162.862,180.656 160.942,181.848 159.226,181.848C158.353,181.848 157.479,181.238 157.479,180.394Z" style="fill:white;fill-rule:nonzero;"/>
        <path d="M175.198,169.045L182.997,169.045C183.143,168.609 183.229,168.114 183.229,167.649C183.229,166.281 182.299,164.942 180.087,164.942C177.934,164.942 175.955,166.688 175.198,169.045ZM174.907,170.325C174.879,170.587 174.879,170.849 174.879,171.111C174.879,173.643 176.944,174.923 179.011,174.923C180.437,174.923 181.455,174.632 183.026,173.788L182.677,175.36C181.396,175.999 180.35,176.261 178.749,176.261C175.926,176.261 173.365,174.428 173.365,171.14C173.365,167.008 176.596,163.575 180.204,163.575C182.968,163.575 184.655,165.321 184.655,167.91C184.655,168.666 184.481,169.452 184.161,170.325L174.907,170.325Z" style="fill:white;fill-rule:nonzero;"/>
        <path d="M188.757,165.146L186.43,165.146L186.778,163.807L190.532,163.807L189.718,167.124C191.347,164.884 192.715,163.575 193.85,163.575C194.81,163.575 195.333,164.127 195.333,164.855C195.333,165.641 194.693,166.281 193.966,166.281C193.297,166.281 192.831,165.873 192.686,165.291C191.696,165.873 189.572,167.793 188.874,170.674L187.535,176.029L186.021,176.029L188.757,165.146Z" style="fill:white;fill-rule:nonzero;"/>
        <path d="M55.215,32.494L53.178,32.494L53.528,31.039L59.406,31.039L59.056,32.494L56.67,32.494L57.078,47.509L65.022,33.512L65.72,33.512L67.32,47.538L75.235,32.494L72.907,32.494L73.256,31.039L79.105,31.039L78.756,32.494L76.835,32.494L67.262,50.506L66.331,50.506L64.643,36.917L56.787,50.506L55.856,50.506L55.215,32.494Z" style="fill:white;fill-rule:nonzero;"/>
        <path d="M76.861,43.202L84.66,43.202C84.805,42.766 84.893,42.271 84.893,41.805C84.893,40.438 83.961,39.099 81.75,39.099C79.597,39.099 77.618,40.845 76.861,43.202ZM76.57,44.483C76.541,44.744 76.541,45.006 76.541,45.268C76.541,47.8 78.607,49.08 80.673,49.08C82.099,49.08 83.118,48.789 84.689,47.945L84.34,49.516C83.059,50.156 82.012,50.419 80.411,50.419C77.589,50.419 75.028,48.585 75.028,45.297C75.028,41.165 78.258,37.732 81.866,37.732C84.63,37.732 86.318,39.477 86.318,42.067C86.318,42.824 86.144,43.61 85.824,44.483L76.57,44.483Z" style="fill:white;fill-rule:nonzero;"/>
        <path d="M102.582,42.766C102.582,40.583 101.418,39.099 99.206,39.099C96.267,39.099 94.23,42.155 94.23,45.326C94.23,47.596 95.336,49.051 97.431,49.051C100.603,49.051 102.582,45.501 102.582,42.766ZM92.601,45.355C92.601,41.195 95.627,37.732 99.147,37.732C101.359,37.732 102.814,38.954 103.164,40.904L103.891,37.819L105.404,37.819L103.135,47.131C103.018,47.596 102.931,48.062 102.931,48.294C102.931,48.876 103.309,49.255 103.833,49.255C104.473,49.255 104.968,48.673 105.521,47.334L106.423,47.625C105.841,49.342 104.968,50.361 103.629,50.361C102.349,50.361 101.476,49.546 101.476,48.411L101.476,47.916C100.399,49.342 98.886,50.419 97.111,50.419C94.463,50.419 92.601,48.498 92.601,45.355Z" style="fill:white;fill-rule:nonzero;"/>
        <path d="M110.32,39.303L107.992,39.303L108.341,37.965L112.095,37.965L111.28,41.281C112.91,39.041 114.277,37.732 115.412,37.732C116.372,37.732 116.896,38.284 116.896,39.012C116.896,39.798 116.256,40.438 115.528,40.438C114.859,40.438 114.394,40.031 114.248,39.448C113.259,40.031 111.134,41.951 110.436,44.832L109.098,50.186L107.584,50.186L110.32,39.303Z" style="fill:white;fill-rule:nonzero;"/>
        <path d="M118.146,43.202L125.944,43.202C126.09,42.766 126.177,42.271 126.177,41.805C126.177,40.438 125.246,39.099 123.034,39.099C120.881,39.099 118.902,40.845 118.146,43.202ZM117.854,44.483C117.826,44.744 117.826,45.006 117.826,45.268C117.826,47.8 119.892,49.08 121.958,49.08C123.384,49.08 124.402,48.789 125.974,47.945L125.624,49.516C124.344,50.156 123.297,50.419 121.696,50.419C118.873,50.419 116.313,48.585 116.313,45.297C116.313,41.165 119.543,37.732 123.151,37.732C125.915,37.732 127.603,39.477 127.603,42.067C127.603,42.824 127.429,43.61 127.108,44.483L117.854,44.483Z" style="fill:white;fill-rule:nonzero;"/>
        <path d="M143.866,42.766C143.866,40.583 142.702,39.099 140.491,39.099C137.552,39.099 135.515,42.155 135.515,45.326C135.515,47.596 136.621,49.051 138.716,49.051C141.888,49.051 143.866,45.501 143.866,42.766ZM133.886,45.355C133.886,41.195 136.912,37.732 140.433,37.732C142.645,37.732 144.1,38.954 144.448,40.904L145.176,37.819L146.688,37.819L144.419,47.131C144.303,47.596 144.216,48.062 144.216,48.294C144.216,48.876 144.594,49.255 145.117,49.255C145.758,49.255 146.253,48.673 146.806,47.334L147.707,47.625C147.125,49.342 146.253,50.361 144.914,50.361C143.634,50.361 142.761,49.546 142.761,48.411L142.761,47.916C141.684,49.342 140.171,50.419 138.396,50.419C135.748,50.419 133.886,48.498 133.886,45.355Z" style="fill:white;fill-rule:nonzero;"/>
    </g>
</svg>
