<?xml version="1.0" encoding="UTF-8" standalone="no"?>
<!DOCTYPE svg PUBLIC "-//W3C//DTD SVG 1.1//EN" "http://www.w3.org/Graphics/SVG/1.1/DTD/svg11.dtd">
<svg width="100%" height="100%" viewBox="0 0 180 62" version="1.1" xmlns="http://www.w3.org/2000/svg" xmlns:xlink="http://www.w3.org/1999/xlink" xml:space="preserve" xmlns:serif="http://www.serif.com/" style="fill-rule:evenodd;clip-rule:evenodd;stroke-linejoin:round;stroke-miterlimit:2;">
    <rect id="Artboard1" x="0" y="0" width="180" height="62" style="fill:none;"/>
    <g id="Artboard11" serif:id="Artboard1">
        <g transform="matrix(28.3589,0,0,28.3589,2.29036,23.308)">
            <path d="M0.066,-0L0.066,-0.716L0.154,-0.716L0.154,-0.459C0.195,-0.507 0.247,-0.53 0.309,-0.53C0.347,-0.53 0.381,-0.523 0.409,-0.508C0.438,-0.492 0.458,-0.472 0.47,-0.445C0.482,-0.418 0.488,-0.379 0.488,-0.329L0.488,-0L0.4,-0L0.4,-0.329C0.4,-0.373 0.391,-0.405 0.372,-0.425C0.353,-0.445 0.326,-0.455 0.291,-0.455C0.265,-0.455 0.24,-0.448 0.218,-0.434C0.195,-0.421 0.178,-0.403 0.168,-0.379C0.159,-0.356 0.154,-0.324 0.154,-0.284L0.154,-0L0.066,-0Z" style="fill:white;fill-rule:nonzero;"/>
        </g>
        <g transform="matrix(28.3589,0,0,28.3589,18.0622,23.308)">
            <path d="M0.421,-0.167L0.512,-0.156C0.497,-0.103 0.471,-0.062 0.432,-0.032C0.393,-0.003 0.344,0.012 0.284,0.012C0.208,0.012 0.148,-0.012 0.103,-0.058C0.059,-0.105 0.037,-0.171 0.037,-0.255C0.037,-0.342 0.059,-0.41 0.104,-0.458C0.149,-0.506 0.207,-0.53 0.279,-0.53C0.348,-0.53 0.405,-0.507 0.449,-0.459C0.493,-0.412 0.515,-0.346 0.515,-0.26C0.515,-0.255 0.514,-0.247 0.514,-0.237L0.127,-0.237C0.131,-0.18 0.147,-0.136 0.176,-0.106C0.205,-0.076 0.241,-0.061 0.284,-0.061C0.316,-0.061 0.344,-0.069 0.367,-0.086C0.389,-0.103 0.408,-0.13 0.421,-0.167ZM0.132,-0.309L0.422,-0.309C0.418,-0.353 0.407,-0.385 0.389,-0.407C0.361,-0.441 0.324,-0.458 0.28,-0.458C0.239,-0.458 0.205,-0.444 0.178,-0.417C0.15,-0.39 0.135,-0.354 0.132,-0.309Z" style="fill:white;fill-rule:nonzero;"/>
        </g>
        <g transform="matrix(28.3589,0,0,28.3589,33.8342,23.308)">
            <path d="M0.065,-0L0.065,-0.519L0.144,-0.519L0.144,-0.44C0.164,-0.477 0.183,-0.501 0.2,-0.513C0.217,-0.524 0.236,-0.53 0.256,-0.53C0.286,-0.53 0.316,-0.521 0.347,-0.502L0.316,-0.42C0.295,-0.433 0.273,-0.439 0.252,-0.439C0.233,-0.439 0.215,-0.434 0.2,-0.422C0.185,-0.411 0.174,-0.395 0.167,-0.374C0.158,-0.343 0.153,-0.309 0.153,-0.271L0.153,-0L0.065,-0Z" style="fill:white;fill-rule:nonzero;"/>
        </g>
        <g transform="matrix(28.3589,0,0,28.3589,43.2779,23.308)">
            <path d="M0.147,-0L0.065,-0L0.065,-0.716L0.153,-0.716L0.153,-0.46C0.19,-0.507 0.238,-0.53 0.295,-0.53C0.327,-0.53 0.358,-0.524 0.386,-0.511C0.414,-0.498 0.438,-0.48 0.456,-0.457C0.475,-0.434 0.489,-0.405 0.5,-0.373C0.51,-0.34 0.515,-0.305 0.515,-0.267C0.515,-0.178 0.493,-0.11 0.449,-0.061C0.405,-0.013 0.353,0.012 0.291,0.012C0.23,0.012 0.182,-0.014 0.147,-0.065L0.147,-0ZM0.146,-0.263C0.146,-0.201 0.154,-0.156 0.171,-0.128C0.199,-0.083 0.236,-0.061 0.284,-0.061C0.322,-0.061 0.355,-0.077 0.383,-0.111C0.411,-0.144 0.425,-0.194 0.425,-0.26C0.425,-0.327 0.412,-0.377 0.385,-0.41C0.358,-0.442 0.326,-0.458 0.288,-0.458C0.249,-0.458 0.216,-0.441 0.188,-0.408C0.16,-0.375 0.146,-0.326 0.146,-0.263Z" style="fill:white;fill-rule:nonzero;"/>
        </g>
        <g transform="matrix(28.3589,0,0,28.3589,59.0498,23.308)">
            <path d="M0.404,-0.064C0.372,-0.036 0.34,-0.017 0.31,-0.005C0.28,0.006 0.248,0.012 0.213,0.012C0.156,0.012 0.113,-0.002 0.082,-0.03C0.051,-0.058 0.036,-0.093 0.036,-0.137C0.036,-0.162 0.042,-0.185 0.053,-0.206C0.065,-0.227 0.08,-0.244 0.099,-0.257C0.118,-0.27 0.139,-0.279 0.162,-0.286C0.179,-0.29 0.205,-0.295 0.24,-0.299C0.311,-0.307 0.363,-0.317 0.397,-0.329L0.397,-0.352C0.397,-0.388 0.389,-0.413 0.373,-0.428C0.35,-0.448 0.317,-0.458 0.272,-0.458C0.231,-0.458 0.201,-0.45 0.181,-0.436C0.161,-0.421 0.147,-0.396 0.137,-0.359L0.051,-0.371C0.059,-0.407 0.072,-0.437 0.09,-0.46C0.108,-0.482 0.134,-0.5 0.167,-0.512C0.201,-0.524 0.241,-0.53 0.285,-0.53C0.329,-0.53 0.365,-0.525 0.393,-0.515C0.421,-0.504 0.441,-0.491 0.454,-0.475C0.467,-0.46 0.476,-0.44 0.481,-0.416C0.484,-0.401 0.486,-0.374 0.486,-0.334L0.486,-0.217C0.486,-0.136 0.488,-0.084 0.491,-0.062C0.495,-0.041 0.503,-0.02 0.514,-0L0.422,-0C0.413,-0.018 0.407,-0.04 0.404,-0.064ZM0.397,-0.26C0.365,-0.247 0.317,-0.236 0.253,-0.227C0.217,-0.222 0.192,-0.216 0.177,-0.209C0.162,-0.203 0.15,-0.193 0.142,-0.181C0.134,-0.168 0.13,-0.154 0.13,-0.139C0.13,-0.116 0.139,-0.096 0.156,-0.081C0.174,-0.065 0.2,-0.057 0.234,-0.057C0.268,-0.057 0.298,-0.065 0.325,-0.079C0.351,-0.094 0.37,-0.114 0.383,-0.14C0.392,-0.16 0.397,-0.189 0.397,-0.228L0.397,-0.26Z" style="fill:white;fill-rule:nonzero;"/>
        </g>
        <g transform="matrix(28.3589,0,0,28.3589,74.8217,23.308)">
            <rect x="0.064" y="-0.716" width="0.088" height="0.716" style="fill:white;"/>
        </g>
        <g transform="matrix(28.3589,0,0,28.3589,2.29036,52.8714)">
            <path d="M0.479,-0.446L0.384,-0.121L0.375,-0.082C0.374,-0.077 0.373,-0.073 0.373,-0.071C0.373,-0.067 0.374,-0.063 0.377,-0.061C0.38,-0.058 0.383,-0.056 0.386,-0.056C0.393,-0.056 0.402,-0.061 0.414,-0.072C0.419,-0.076 0.431,-0.091 0.449,-0.117L0.466,-0.108C0.443,-0.066 0.419,-0.035 0.392,-0.015C0.366,0.004 0.338,0.014 0.308,0.014C0.289,0.014 0.275,0.009 0.265,-0.001C0.255,-0.01 0.25,-0.022 0.25,-0.037C0.25,-0.05 0.256,-0.073 0.266,-0.108L0.278,-0.147C0.24,-0.083 0.204,-0.037 0.169,-0.01C0.149,0.006 0.127,0.014 0.104,0.014C0.075,0.014 0.053,0.001 0.04,-0.023C0.026,-0.048 0.02,-0.076 0.02,-0.106C0.02,-0.152 0.034,-0.205 0.062,-0.264C0.09,-0.324 0.126,-0.372 0.172,-0.408C0.209,-0.438 0.244,-0.453 0.277,-0.453C0.296,-0.453 0.31,-0.447 0.321,-0.437C0.332,-0.426 0.34,-0.407 0.346,-0.379L0.363,-0.439L0.479,-0.446ZM0.323,-0.353C0.323,-0.379 0.319,-0.398 0.311,-0.41C0.305,-0.418 0.297,-0.422 0.287,-0.422C0.277,-0.422 0.266,-0.417 0.255,-0.408C0.234,-0.388 0.21,-0.347 0.185,-0.285C0.16,-0.223 0.147,-0.17 0.147,-0.125C0.147,-0.108 0.15,-0.095 0.156,-0.088C0.161,-0.08 0.167,-0.076 0.174,-0.076C0.189,-0.076 0.204,-0.085 0.219,-0.102C0.24,-0.126 0.26,-0.155 0.277,-0.19C0.307,-0.251 0.323,-0.306 0.323,-0.353Z" style="fill:white;fill-rule:nonzero;"/>
        </g>
        <g transform="matrix(28.3589,0,0,28.3589,16.4698,52.8714)">
            <path d="M0.061,-0.425L0.222,-0.453L0.251,-0.453L0.229,-0.373C0.264,-0.404 0.292,-0.425 0.313,-0.436C0.335,-0.447 0.357,-0.453 0.378,-0.453C0.409,-0.453 0.433,-0.441 0.449,-0.417C0.466,-0.394 0.474,-0.365 0.474,-0.331C0.474,-0.237 0.442,-0.154 0.377,-0.082C0.32,-0.018 0.257,0.014 0.189,0.014C0.177,0.014 0.167,0.013 0.159,0.01C0.15,0.008 0.138,0.003 0.123,-0.005L0.098,0.083C0.089,0.115 0.084,0.139 0.084,0.156C0.084,0.166 0.088,0.174 0.095,0.18C0.102,0.186 0.119,0.192 0.145,0.196L0.141,0.214L-0.122,0.214L-0.117,0.196C-0.096,0.195 -0.079,0.188 -0.065,0.176C-0.051,0.163 -0.038,0.136 -0.026,0.094L0.093,-0.317C0.102,-0.347 0.106,-0.369 0.106,-0.382C0.106,-0.387 0.105,-0.392 0.102,-0.396C0.099,-0.399 0.096,-0.402 0.09,-0.404C0.085,-0.405 0.073,-0.406 0.055,-0.406L0.061,-0.425ZM0.137,-0.05C0.146,-0.034 0.155,-0.024 0.163,-0.018C0.171,-0.013 0.18,-0.01 0.19,-0.01C0.201,-0.01 0.211,-0.013 0.221,-0.019C0.231,-0.024 0.243,-0.036 0.258,-0.053C0.272,-0.07 0.287,-0.093 0.3,-0.12C0.314,-0.147 0.324,-0.177 0.333,-0.212C0.341,-0.246 0.345,-0.279 0.345,-0.31C0.345,-0.335 0.34,-0.353 0.331,-0.365C0.322,-0.376 0.312,-0.382 0.299,-0.382C0.287,-0.382 0.277,-0.379 0.267,-0.373C0.252,-0.365 0.235,-0.349 0.215,-0.326L0.137,-0.05Z" style="fill:white;fill-rule:nonzero;"/>
        </g>
        <g transform="matrix(28.3589,0,0,28.3589,30.6493,52.8714)">
            <path d="M0.329,-0.453C0.354,-0.453 0.378,-0.447 0.401,-0.435C0.424,-0.423 0.441,-0.406 0.452,-0.385C0.464,-0.364 0.47,-0.341 0.47,-0.315C0.47,-0.262 0.455,-0.209 0.426,-0.157C0.396,-0.104 0.357,-0.062 0.309,-0.032C0.261,-0.002 0.212,0.014 0.164,0.014C0.119,0.014 0.085,0 0.061,-0.026C0.037,-0.052 0.024,-0.084 0.024,-0.123C0.024,-0.168 0.033,-0.21 0.052,-0.25C0.07,-0.289 0.093,-0.324 0.12,-0.353C0.148,-0.383 0.18,-0.407 0.216,-0.425C0.252,-0.443 0.29,-0.453 0.329,-0.453ZM0.309,-0.427C0.291,-0.427 0.277,-0.422 0.266,-0.412C0.243,-0.391 0.217,-0.343 0.188,-0.268C0.16,-0.192 0.146,-0.125 0.146,-0.064C0.146,-0.049 0.15,-0.037 0.159,-0.027C0.168,-0.017 0.179,-0.012 0.191,-0.012C0.204,-0.012 0.215,-0.016 0.225,-0.024C0.239,-0.036 0.257,-0.062 0.278,-0.103C0.299,-0.144 0.316,-0.189 0.329,-0.238C0.342,-0.287 0.349,-0.333 0.349,-0.374C0.349,-0.39 0.345,-0.404 0.337,-0.413C0.329,-0.422 0.319,-0.427 0.309,-0.427Z" style="fill:white;fill-rule:nonzero;"/>
        </g>
        <g transform="matrix(28.3589,0,0,28.3589,44.8287,52.8714)">
            <path d="M0.287,-0.572L0.248,-0.439L0.312,-0.439L0.294,-0.383L0.231,-0.383L0.15,-0.1C0.145,-0.082 0.142,-0.069 0.142,-0.06C0.142,-0.055 0.144,-0.052 0.146,-0.049C0.149,-0.045 0.153,-0.044 0.156,-0.044C0.162,-0.044 0.167,-0.046 0.173,-0.051C0.188,-0.062 0.206,-0.082 0.226,-0.11L0.243,-0.1C0.22,-0.061 0.195,-0.032 0.168,-0.014C0.141,0.005 0.115,0.014 0.089,0.014C0.067,0.014 0.05,0.008 0.037,-0.003C0.025,-0.014 0.019,-0.029 0.019,-0.046C0.019,-0.065 0.023,-0.089 0.032,-0.119L0.109,-0.383L0.042,-0.383L0.052,-0.419C0.094,-0.434 0.129,-0.452 0.158,-0.473C0.186,-0.493 0.221,-0.526 0.261,-0.572L0.287,-0.572Z" style="fill:white;fill-rule:nonzero;"/>
        </g>
        <g transform="matrix(28.3589,0,0,28.3589,52.7077,52.8714)">
            <path d="M0.329,-0.677L0.202,-0.237C0.246,-0.302 0.278,-0.346 0.297,-0.369C0.327,-0.402 0.352,-0.424 0.374,-0.435C0.395,-0.447 0.416,-0.453 0.435,-0.453C0.452,-0.453 0.466,-0.446 0.478,-0.434C0.49,-0.421 0.496,-0.405 0.496,-0.384C0.496,-0.366 0.492,-0.344 0.484,-0.318L0.422,-0.11C0.416,-0.092 0.414,-0.079 0.414,-0.073C0.414,-0.07 0.415,-0.068 0.417,-0.065C0.419,-0.063 0.422,-0.062 0.425,-0.062C0.429,-0.062 0.433,-0.063 0.437,-0.066C0.447,-0.075 0.458,-0.088 0.47,-0.105C0.473,-0.11 0.477,-0.117 0.484,-0.126L0.503,-0.115C0.475,-0.069 0.448,-0.037 0.423,-0.02C0.398,-0.003 0.375,0.006 0.352,0.006C0.332,0.006 0.316,0.001 0.305,-0.01C0.293,-0.02 0.288,-0.033 0.288,-0.049C0.288,-0.063 0.292,-0.083 0.299,-0.11L0.36,-0.318C0.364,-0.332 0.366,-0.343 0.366,-0.349C0.366,-0.353 0.364,-0.356 0.362,-0.359C0.359,-0.361 0.356,-0.363 0.352,-0.363C0.34,-0.363 0.324,-0.353 0.304,-0.333C0.261,-0.293 0.219,-0.231 0.177,-0.145L0.133,-0L0.012,-0L0.172,-0.552C0.179,-0.575 0.182,-0.592 0.182,-0.602C0.182,-0.61 0.179,-0.617 0.172,-0.621C0.164,-0.627 0.151,-0.63 0.133,-0.629L0.137,-0.648L0.299,-0.677L0.329,-0.677Z" style="fill:white;fill-rule:nonzero;"/>
        </g>
        <g transform="matrix(28.3589,0,0,28.3589,68.4796,52.8714)">
            <path d="M0.156,-0.183C0.153,-0.162 0.152,-0.145 0.152,-0.131C0.152,-0.106 0.159,-0.087 0.173,-0.072C0.187,-0.058 0.206,-0.05 0.23,-0.05C0.253,-0.05 0.276,-0.056 0.299,-0.067C0.322,-0.078 0.348,-0.097 0.378,-0.125L0.393,-0.112C0.356,-0.067 0.319,-0.034 0.284,-0.015C0.248,0.004 0.209,0.014 0.166,0.014C0.112,0.014 0.074,0.001 0.053,-0.025C0.032,-0.051 0.022,-0.082 0.022,-0.116C0.022,-0.169 0.038,-0.222 0.069,-0.276C0.1,-0.329 0.142,-0.372 0.196,-0.404C0.249,-0.437 0.303,-0.453 0.357,-0.453C0.384,-0.453 0.405,-0.446 0.419,-0.433C0.433,-0.42 0.44,-0.404 0.44,-0.384C0.44,-0.36 0.433,-0.337 0.419,-0.314C0.401,-0.284 0.377,-0.259 0.348,-0.24C0.319,-0.222 0.287,-0.208 0.252,-0.198C0.228,-0.191 0.196,-0.186 0.156,-0.183ZM0.161,-0.208C0.189,-0.213 0.212,-0.219 0.227,-0.226C0.243,-0.233 0.259,-0.245 0.274,-0.261C0.289,-0.277 0.302,-0.297 0.313,-0.322C0.324,-0.347 0.33,-0.37 0.33,-0.391C0.33,-0.4 0.327,-0.407 0.322,-0.413C0.317,-0.418 0.311,-0.42 0.303,-0.42C0.287,-0.42 0.27,-0.41 0.25,-0.388C0.214,-0.348 0.184,-0.288 0.161,-0.208Z" style="fill:white;fill-rule:nonzero;"/>
        </g>
        <g transform="matrix(28.3589,0,0,28.3589,81.0668,52.8714)">
            <path d="M0.375,-0.118L0.39,-0.104C0.359,-0.067 0.327,-0.039 0.297,-0.021C0.256,0.002 0.214,0.014 0.17,0.014C0.141,0.014 0.115,0.007 0.093,-0.005C0.07,-0.018 0.053,-0.035 0.042,-0.058C0.032,-0.08 0.026,-0.104 0.026,-0.127C0.026,-0.181 0.041,-0.233 0.07,-0.285C0.099,-0.337 0.137,-0.377 0.185,-0.407C0.232,-0.438 0.279,-0.453 0.325,-0.453C0.361,-0.453 0.389,-0.444 0.408,-0.428C0.426,-0.412 0.436,-0.392 0.436,-0.368C0.436,-0.346 0.429,-0.327 0.415,-0.312C0.401,-0.297 0.385,-0.289 0.368,-0.289C0.353,-0.289 0.34,-0.294 0.33,-0.304C0.32,-0.313 0.315,-0.325 0.315,-0.338C0.315,-0.356 0.324,-0.371 0.342,-0.384C0.354,-0.393 0.36,-0.401 0.36,-0.408C0.36,-0.414 0.357,-0.419 0.353,-0.422C0.346,-0.428 0.338,-0.43 0.327,-0.43C0.3,-0.43 0.274,-0.419 0.25,-0.397C0.218,-0.368 0.194,-0.331 0.177,-0.286C0.16,-0.241 0.151,-0.198 0.151,-0.158C0.151,-0.126 0.16,-0.1 0.177,-0.081C0.194,-0.062 0.215,-0.053 0.239,-0.053C0.26,-0.053 0.282,-0.058 0.306,-0.069C0.331,-0.08 0.354,-0.096 0.375,-0.118Z" style="fill:white;fill-rule:nonzero;"/>
        </g>
        <g transform="matrix(28.3589,0,0,28.3589,93.6539,52.8714)">
            <path d="M0.479,-0.446L0.384,-0.121L0.375,-0.082C0.374,-0.077 0.373,-0.073 0.373,-0.071C0.373,-0.067 0.374,-0.063 0.377,-0.061C0.38,-0.058 0.383,-0.056 0.386,-0.056C0.393,-0.056 0.402,-0.061 0.414,-0.072C0.419,-0.076 0.431,-0.091 0.449,-0.117L0.466,-0.108C0.443,-0.066 0.419,-0.035 0.392,-0.015C0.366,0.004 0.338,0.014 0.308,0.014C0.289,0.014 0.275,0.009 0.265,-0.001C0.255,-0.01 0.25,-0.022 0.25,-0.037C0.25,-0.05 0.256,-0.073 0.266,-0.108L0.278,-0.147C0.24,-0.083 0.204,-0.037 0.169,-0.01C0.149,0.006 0.127,0.014 0.104,0.014C0.075,0.014 0.053,0.001 0.04,-0.023C0.026,-0.048 0.02,-0.076 0.02,-0.106C0.02,-0.152 0.034,-0.205 0.062,-0.264C0.09,-0.324 0.126,-0.372 0.172,-0.408C0.209,-0.438 0.244,-0.453 0.277,-0.453C0.296,-0.453 0.31,-0.447 0.321,-0.437C0.332,-0.426 0.34,-0.407 0.346,-0.379L0.363,-0.439L0.479,-0.446ZM0.323,-0.353C0.323,-0.379 0.319,-0.398 0.311,-0.41C0.305,-0.418 0.297,-0.422 0.287,-0.422C0.277,-0.422 0.266,-0.417 0.255,-0.408C0.234,-0.388 0.21,-0.347 0.185,-0.285C0.16,-0.223 0.147,-0.17 0.147,-0.125C0.147,-0.108 0.15,-0.095 0.156,-0.088C0.161,-0.08 0.167,-0.076 0.174,-0.076C0.189,-0.076 0.204,-0.085 0.219,-0.102C0.24,-0.126 0.26,-0.155 0.277,-0.19C0.307,-0.251 0.323,-0.306 0.323,-0.353Z" style="fill:white;fill-rule:nonzero;"/>
        </g>
        <g transform="matrix(28.3589,0,0,28.3589,107.833,52.8714)">
            <path d="M0.237,-0.453L0.163,-0.178C0.224,-0.312 0.269,-0.394 0.3,-0.425C0.318,-0.444 0.337,-0.453 0.356,-0.453C0.37,-0.453 0.381,-0.448 0.39,-0.438C0.398,-0.428 0.402,-0.414 0.402,-0.396C0.402,-0.364 0.395,-0.337 0.379,-0.316C0.37,-0.302 0.359,-0.295 0.347,-0.295C0.334,-0.295 0.324,-0.301 0.317,-0.313C0.311,-0.326 0.306,-0.333 0.304,-0.335C0.301,-0.337 0.298,-0.338 0.295,-0.338C0.292,-0.338 0.289,-0.337 0.285,-0.335C0.278,-0.331 0.269,-0.322 0.257,-0.306C0.246,-0.291 0.231,-0.266 0.214,-0.23C0.197,-0.195 0.184,-0.165 0.175,-0.14C0.165,-0.116 0.152,-0.069 0.135,-0L0.017,-0L0.098,-0.324C0.104,-0.348 0.106,-0.364 0.106,-0.372C0.106,-0.38 0.105,-0.387 0.102,-0.392C0.099,-0.397 0.094,-0.401 0.089,-0.403C0.084,-0.405 0.073,-0.406 0.056,-0.406L0.06,-0.42L0.208,-0.453L0.237,-0.453Z" style="fill:white;fill-rule:nonzero;"/>
        </g>
        <g transform="matrix(28.3589,0,0,28.3589,118.869,52.8714)">
            <path d="M0.025,-0.409L0.176,-0.453C0.188,-0.438 0.196,-0.424 0.201,-0.41C0.21,-0.387 0.216,-0.355 0.22,-0.314C0.227,-0.234 0.231,-0.149 0.234,-0.058C0.269,-0.104 0.309,-0.165 0.354,-0.24C0.367,-0.263 0.374,-0.285 0.374,-0.305C0.374,-0.317 0.366,-0.329 0.35,-0.341C0.335,-0.352 0.325,-0.361 0.321,-0.367C0.317,-0.374 0.315,-0.382 0.315,-0.392C0.315,-0.408 0.321,-0.423 0.333,-0.435C0.345,-0.447 0.359,-0.453 0.376,-0.453C0.394,-0.453 0.409,-0.446 0.423,-0.432C0.436,-0.418 0.442,-0.402 0.442,-0.384C0.442,-0.362 0.436,-0.337 0.424,-0.308C0.412,-0.279 0.383,-0.23 0.338,-0.16C0.281,-0.07 0.224,0.007 0.169,0.073C0.133,0.114 0.105,0.144 0.083,0.163C0.061,0.181 0.039,0.196 0.015,0.207C0.001,0.213 -0.013,0.216 -0.026,0.216C-0.045,0.216 -0.061,0.209 -0.074,0.196C-0.087,0.183 -0.094,0.168 -0.094,0.15C-0.094,0.132 -0.088,0.117 -0.076,0.104C-0.064,0.092 -0.05,0.086 -0.034,0.086C-0.014,0.086 0.004,0.096 0.021,0.117C0.032,0.131 0.041,0.138 0.048,0.138C0.055,0.138 0.063,0.136 0.07,0.132C0.08,0.127 0.093,0.115 0.111,0.096C0.113,0.055 0.114,0.024 0.114,0.003C0.114,-0.025 0.112,-0.064 0.11,-0.115L0.102,-0.301C0.099,-0.335 0.091,-0.36 0.08,-0.375C0.07,-0.386 0.059,-0.391 0.044,-0.391C0.038,-0.391 0.032,-0.391 0.025,-0.39L0.025,-0.409Z" style="fill:white;fill-rule:nonzero;"/>
        </g>
    </g>
</svg>
